<svg width="516" height="214" viewBox="0 0 516 214" fill="none" xmlns="http://www.w3.org/2000/svg">
<mask id="path-1-outside-1_4_883" maskUnits="userSpaceOnUse" x="4" y="32" width="510" height="48" fill="black">
<rect fill="white" x="4" y="32" width="510" height="48"/>
<path d="M17.6623 66.928H38.1423V78H5.24625V34.032H17.6623V66.928ZM43.6898 78V34.032H56.1058V78H43.6898ZM76.4123 66.928H96.8923V78H63.9963V34.032H76.4123V66.928ZM137.285 78.768C129.349 78.768 121.861 76.272 116.293 71.344L123.205 63.088C127.685 66.608 132.549 68.464 137.733 68.464C141.125 68.464 142.917 67.312 142.917 65.392C142.917 63.28 141.381 62.96 135.301 61.552C125.765 59.376 118.405 56.88 118.405 47.728C118.405 38.96 125.317 33.264 135.749 33.264C143.365 33.264 149.317 35.312 154.181 39.216L147.973 47.984C143.877 45.04 139.397 43.568 135.429 43.568C132.421 43.568 130.949 44.784 130.949 46.448C130.949 48.688 132.485 49.392 138.757 50.736C148.997 52.912 155.397 55.664 155.397 64.048C155.397 73.328 148.293 78.768 137.285 78.768ZM183.268 78.768C170.276 78.768 159.332 68.336 159.332 55.984C159.332 43.632 170.276 33.264 183.268 33.264C196.26 33.264 207.204 43.632 207.204 55.984C207.204 68.336 196.26 78.768 183.268 78.768ZM183.268 67.504C189.284 67.504 194.404 62.256 194.404 55.984C194.404 49.776 189.284 44.528 183.268 44.528C177.252 44.528 172.132 49.776 172.132 55.984C172.132 62.256 177.252 67.504 183.268 67.504ZM213.184 78V34.032H225.6L237.376 55.024L249.152 34.032H261.568V78H249.152V54.448L237.376 75.44L225.6 54.448V78H213.184ZM304.638 45.104H281.662V50.032H302.59V61.104H281.662V66.928H304.638V78H269.246V34.032H304.638V45.104ZM321.558 78V45.104H308.566V34.032H346.966V45.104H333.974V78H321.558ZM380.664 34.032H393.08V78H380.664V61.104H364.6V78H352.184V34.032H364.6V50.032H380.664V34.032ZM401.002 78V34.032H413.418V78H401.002ZM421.309 78V34.032H433.725L450.877 57.584V34.032H463.293V78H450.877L433.725 54.448V78H421.309ZM491.156 61.424V52.272H511.764V70.96C507.22 75.888 500.5 78.768 493.588 78.768C480.404 78.768 469.332 68.336 469.332 55.984C469.332 43.632 480.404 33.264 493.588 33.264C500.5 33.264 507.22 36.144 511.764 41.008L502.612 49.008C500.436 46.192 497.108 44.528 493.588 44.528C487.38 44.528 482.132 49.776 482.132 55.984C482.132 62.256 487.38 67.504 493.588 67.504C495.764 67.504 497.876 66.864 499.732 65.712V61.424H491.156Z"/>
</mask>
<path d="M17.6623 66.928H16.6623V67.928H17.6623V66.928ZM38.1423 66.928H39.1423V65.928H38.1423V66.928ZM38.1423 78V79H39.1423V78H38.1423ZM5.24625 78H4.24625V79H5.24625V78ZM5.24625 34.032V33.032H4.24625V34.032H5.24625ZM17.6623 34.032H18.6623V33.032H17.6623V34.032ZM17.6623 67.928H38.1423V65.928H17.6623V67.928ZM37.1423 66.928V78H39.1423V66.928H37.1423ZM38.1423 77H5.24625V79H38.1423V77ZM6.24625 78V34.032H4.24625V78H6.24625ZM5.24625 35.032H17.6623V33.032H5.24625V35.032ZM16.6623 34.032V66.928H18.6623V34.032H16.6623ZM43.6898 78H42.6898V79H43.6898V78ZM43.6898 34.032V33.032H42.6898V34.032H43.6898ZM56.1058 34.032H57.1058V33.032H56.1058V34.032ZM56.1058 78V79H57.1058V78H56.1058ZM44.6898 78V34.032H42.6898V78H44.6898ZM43.6898 35.032H56.1058V33.032H43.6898V35.032ZM55.1058 34.032V78H57.1058V34.032H55.1058ZM56.1058 77H43.6898V79H56.1058V77ZM76.4122 66.928H75.4122V67.928H76.4122V66.928ZM96.8923 66.928H97.8923V65.928H96.8923V66.928ZM96.8923 78V79H97.8923V78H96.8923ZM63.9963 78H62.9963V79H63.9963V78ZM63.9963 34.032V33.032H62.9963V34.032H63.9963ZM76.4122 34.032H77.4122V33.032H76.4122V34.032ZM76.4122 67.928H96.8923V65.928H76.4122V67.928ZM95.8923 66.928V78H97.8923V66.928H95.8923ZM96.8923 77H63.9963V79H96.8923V77ZM64.9962 78V34.032H62.9963V78H64.9962ZM63.9963 35.032H76.4122V33.032H63.9963V35.032ZM75.4122 34.032V66.928H77.4122V34.032H75.4122ZM116.293 71.344L115.526 70.7021L114.902 71.448L115.63 72.0928L116.293 71.344ZM123.205 63.088L123.823 62.3017L123.061 61.7028L122.438 62.4461L123.205 63.088ZM135.301 61.552L135.527 60.5778L135.524 60.5771L135.301 61.552ZM154.181 39.216L154.997 39.7939L155.541 39.0255L154.807 38.4361L154.181 39.216ZM147.973 47.984L147.39 48.796L148.207 49.3838L148.789 48.5619L147.973 47.984ZM138.757 50.736L138.548 51.7138L138.549 51.7142L138.757 50.736ZM137.285 77.768C129.553 77.768 122.313 75.3367 116.956 70.5952L115.63 72.0928C121.409 77.2073 129.145 79.768 137.285 79.768V77.768ZM117.06 71.9859L123.972 63.7299L122.438 62.4461L115.526 70.7021L117.06 71.9859ZM122.587 63.8743C127.216 67.5111 132.293 69.464 137.733 69.464V67.464C132.806 67.464 128.154 65.7049 123.823 62.3017L122.587 63.8743ZM137.733 69.464C139.517 69.464 141.022 69.1652 142.115 68.5034C143.265 67.807 143.917 66.7258 143.917 65.392H141.917C141.917 65.9782 141.673 66.433 141.079 66.7926C140.428 67.1868 139.341 67.464 137.733 67.464V69.464ZM143.917 65.392C143.917 64.7429 143.799 64.1053 143.407 63.534C143.024 62.9749 142.46 62.5962 141.803 62.2976C140.543 61.7247 138.505 61.2674 135.527 60.5778L135.076 62.5262C138.178 63.2446 139.948 63.6513 140.975 64.1184C141.463 64.3398 141.662 64.5251 141.757 64.664C141.844 64.7907 141.917 64.9851 141.917 65.392H143.917ZM135.524 60.5771C130.74 59.4854 126.692 58.3485 123.835 56.4263C122.427 55.4789 121.332 54.3548 120.584 52.9682C119.836 51.5818 119.405 49.8782 119.405 47.728H117.405C117.405 50.1538 117.894 52.1942 118.824 53.9178C119.754 55.6412 121.095 56.9931 122.719 58.0857C125.926 60.2435 130.327 61.4426 135.079 62.5269L135.524 60.5771ZM119.405 47.728C119.405 43.6288 121.01 40.2992 123.804 37.977C126.616 35.6401 130.708 34.264 135.749 34.264V32.264C130.359 32.264 125.778 33.7359 122.526 36.4389C119.256 39.1568 117.405 43.0592 117.405 47.728H119.405ZM135.749 34.264C143.168 34.264 148.891 36.2525 153.555 39.9959L154.807 38.4361C149.743 34.3715 143.562 32.264 135.749 32.264V34.264ZM153.365 38.6381L147.157 47.4061L148.789 48.5619L154.997 39.7939L153.365 38.6381ZM148.557 47.172C144.316 44.1238 139.636 42.568 135.429 42.568V44.568C139.159 44.568 143.439 45.9562 147.39 48.796L148.557 47.172ZM135.429 42.568C133.809 42.568 132.464 42.8926 131.494 43.5602C130.485 44.2549 129.949 45.28 129.949 46.448H131.949C131.949 45.952 132.15 45.5371 132.628 45.2078C133.146 44.8514 134.041 44.568 135.429 44.568V42.568ZM129.949 46.448C129.949 47.1221 130.065 47.7828 130.431 48.3897C130.794 48.9941 131.344 49.4437 132.03 49.81C133.346 50.513 135.446 51.0492 138.548 51.7138L138.967 49.7582C135.796 49.0788 133.993 48.591 132.972 48.046C132.49 47.7883 132.264 47.5579 132.144 47.3582C132.025 47.1612 131.949 46.8939 131.949 46.448H129.949ZM138.549 51.7142C143.667 52.8018 147.647 54.003 150.345 55.8843C152.952 57.7018 154.397 60.1768 154.397 64.048H156.397C156.397 59.5352 154.642 56.4422 151.489 54.2437C148.428 52.109 144.087 50.8462 138.965 49.7578L138.549 51.7142ZM154.397 64.048C154.397 68.4076 152.742 71.7909 149.845 74.1069C146.921 76.4446 142.637 77.768 137.285 77.768V79.768C142.941 79.768 147.714 78.3714 151.094 75.6691C154.501 72.9451 156.397 68.9684 156.397 64.048H154.397ZM183.268 77.768C170.782 77.768 160.332 67.7382 160.332 55.984H158.332C158.332 68.9338 169.771 79.768 183.268 79.768V77.768ZM160.332 55.984C160.332 44.2333 170.778 34.264 183.268 34.264V32.264C169.774 32.264 158.332 43.0307 158.332 55.984H160.332ZM183.268 34.264C195.758 34.264 206.204 44.2333 206.204 55.984H208.204C208.204 43.0307 196.762 32.264 183.268 32.264V34.264ZM206.204 55.984C206.204 67.7382 195.755 77.768 183.268 77.768V79.768C196.766 79.768 208.204 68.9338 208.204 55.984H206.204ZM183.268 68.504C189.866 68.504 195.404 62.7788 195.404 55.984H193.404C193.404 61.7332 188.703 66.504 183.268 66.504V68.504ZM195.404 55.984C195.404 49.2495 189.862 43.528 183.268 43.528V45.528C188.707 45.528 193.404 50.3025 193.404 55.984H195.404ZM183.268 43.528C176.675 43.528 171.132 49.2495 171.132 55.984H173.132C173.132 50.3025 177.83 45.528 183.268 45.528V43.528ZM171.132 55.984C171.132 62.7788 176.671 68.504 183.268 68.504V66.504C177.834 66.504 173.132 61.7332 173.132 55.984H171.132ZM213.184 78H212.184V79H213.184V78ZM213.184 34.032V33.032H212.184V34.032H213.184ZM225.6 34.032L226.472 33.5427L226.185 33.032H225.6V34.032ZM237.376 55.024L236.504 55.5132L237.376 57.0679L238.248 55.5132L237.376 55.024ZM249.152 34.032V33.032H248.566L248.28 33.5427L249.152 34.032ZM261.568 34.032H262.568V33.032H261.568V34.032ZM261.568 78V79H262.568V78H261.568ZM249.152 78H248.152V79H249.152V78ZM249.152 54.448H250.152V50.6214L248.28 53.9587L249.152 54.448ZM237.376 75.44L236.504 75.9293L237.376 77.4839L238.248 75.9293L237.376 75.44ZM225.6 54.448L226.472 53.9587L224.6 50.6214V54.448H225.6ZM225.6 78V79H226.6V78H225.6ZM214.184 78V34.032H212.184V78H214.184ZM213.184 35.032H225.6V33.032H213.184V35.032ZM224.728 34.5212L236.504 55.5132L238.248 54.5347L226.472 33.5427L224.728 34.5212ZM238.248 55.5132L250.024 34.5212L248.28 33.5427L236.504 54.5347L238.248 55.5132ZM249.152 35.032H261.568V33.032H249.152V35.032ZM260.568 34.032V78H262.568V34.032H260.568ZM261.568 77H249.152V79H261.568V77ZM250.152 78V54.448H248.152V78H250.152ZM248.28 53.9587L236.504 74.9507L238.248 75.9293L250.024 54.9372L248.28 53.9587ZM238.248 74.9507L226.472 53.9587L224.728 54.9372L236.504 75.9293L238.248 74.9507ZM224.6 54.448V78H226.6V54.448H224.6ZM225.6 77H213.184V79H225.6V77ZM304.638 45.104V46.104H305.638V45.104H304.638ZM281.662 45.104V44.104H280.662V45.104H281.662ZM281.662 50.032H280.662V51.032H281.662V50.032ZM302.59 50.032H303.59V49.032H302.59V50.032ZM302.59 61.104V62.104H303.59V61.104H302.59ZM281.662 61.104V60.104H280.662V61.104H281.662ZM281.662 66.928H280.662V67.928H281.662V66.928ZM304.638 66.928H305.638V65.928H304.638V66.928ZM304.638 78V79H305.638V78H304.638ZM269.246 78H268.246V79H269.246V78ZM269.246 34.032V33.032H268.246V34.032H269.246ZM304.638 34.032H305.638V33.032H304.638V34.032ZM304.638 44.104H281.662V46.104H304.638V44.104ZM280.662 45.104V50.032H282.662V45.104H280.662ZM281.662 51.032H302.59V49.032H281.662V51.032ZM301.59 50.032V61.104H303.59V50.032H301.59ZM302.59 60.104H281.662V62.104H302.59V60.104ZM280.662 61.104V66.928H282.662V61.104H280.662ZM281.662 67.928H304.638V65.928H281.662V67.928ZM303.638 66.928V78H305.638V66.928H303.638ZM304.638 77H269.246V79H304.638V77ZM270.246 78V34.032H268.246V78H270.246ZM269.246 35.032H304.638V33.032H269.246V35.032ZM303.638 34.032V45.104H305.638V34.032H303.638ZM321.558 78H320.558V79H321.558V78ZM321.558 45.104H322.558V44.104H321.558V45.104ZM308.566 45.104H307.566V46.104H308.566V45.104ZM308.566 34.032V33.032H307.566V34.032H308.566ZM346.966 34.032H347.966V33.032H346.966V34.032ZM346.966 45.104V46.104H347.966V45.104H346.966ZM333.974 45.104V44.104H332.974V45.104H333.974ZM333.974 78V79H334.974V78H333.974ZM322.558 78V45.104H320.558V78H322.558ZM321.558 44.104H308.566V46.104H321.558V44.104ZM309.566 45.104V34.032H307.566V45.104H309.566ZM308.566 35.032H346.966V33.032H308.566V35.032ZM345.966 34.032V45.104H347.966V34.032H345.966ZM346.966 44.104H333.974V46.104H346.966V44.104ZM332.974 45.104V78H334.974V45.104H332.974ZM333.974 77H321.558V79H333.974V77ZM380.664 34.032V33.032H379.664V34.032H380.664ZM393.08 34.032H394.08V33.032H393.08V34.032ZM393.08 78V79H394.08V78H393.08ZM380.664 78H379.664V79H380.664V78ZM380.664 61.104H381.664V60.104H380.664V61.104ZM364.6 61.104V60.104H363.6V61.104H364.6ZM364.6 78V79H365.6V78H364.6ZM352.184 78H351.184V79H352.184V78ZM352.184 34.032V33.032H351.184V34.032H352.184ZM364.6 34.032H365.6V33.032H364.6V34.032ZM364.6 50.032H363.6V51.032H364.6V50.032ZM380.664 50.032V51.032H381.664V50.032H380.664ZM380.664 35.032H393.08V33.032H380.664V35.032ZM392.08 34.032V78H394.08V34.032H392.08ZM393.08 77H380.664V79H393.08V77ZM381.664 78V61.104H379.664V78H381.664ZM380.664 60.104H364.6V62.104H380.664V60.104ZM363.6 61.104V78H365.6V61.104H363.6ZM364.6 77H352.184V79H364.6V77ZM353.184 78V34.032H351.184V78H353.184ZM352.184 35.032H364.6V33.032H352.184V35.032ZM363.6 34.032V50.032H365.6V34.032H363.6ZM364.6 51.032H380.664V49.032H364.6V51.032ZM381.664 50.032V34.032H379.664V50.032H381.664ZM401.002 78H400.002V79H401.002V78ZM401.002 34.032V33.032H400.002V34.032H401.002ZM413.418 34.032H414.418V33.032H413.418V34.032ZM413.418 78V79H414.418V78H413.418ZM402.002 78V34.032H400.002V78H402.002ZM401.002 35.032H413.418V33.032H401.002V35.032ZM412.418 34.032V78H414.418V34.032H412.418ZM413.418 77H401.002V79H413.418V77ZM421.309 78H420.309V79H421.309V78ZM421.309 34.032V33.032H420.309V34.032H421.309ZM433.725 34.032L434.533 33.4433L434.234 33.032H433.725V34.032ZM450.877 57.584L450.068 58.1727L451.877 60.6558V57.584H450.877ZM450.877 34.032V33.032H449.877V34.032H450.877ZM463.293 34.032H464.293V33.032H463.293V34.032ZM463.293 78V79H464.293V78H463.293ZM450.877 78L450.068 78.5887L450.368 79H450.877V78ZM433.725 54.448L434.533 53.8593L432.725 51.3762V54.448H433.725ZM433.725 78V79H434.725V78H433.725ZM422.309 78V34.032H420.309V78H422.309ZM421.309 35.032H433.725V33.032H421.309V35.032ZM432.916 34.6207L450.068 58.1727L451.685 56.9953L434.533 33.4433L432.916 34.6207ZM451.877 57.584V34.032H449.877V57.584H451.877ZM450.877 35.032H463.293V33.032H450.877V35.032ZM462.293 34.032V78H464.293V34.032H462.293ZM463.293 77H450.877V79H463.293V77ZM451.685 77.4113L434.533 53.8593L432.916 55.0367L450.068 78.5887L451.685 77.4113ZM432.725 54.448V78H434.725V54.448H432.725ZM433.725 77H421.309V79H433.725V77ZM491.156 61.424H490.156V62.424H491.156V61.424ZM491.156 52.272V51.272H490.156V52.272H491.156ZM511.764 52.272H512.764V51.272H511.764V52.272ZM511.764 70.96L512.499 71.6379L512.764 71.3507V70.96H511.764ZM511.764 41.008L512.422 41.7609L513.201 41.0806L512.495 40.3253L511.764 41.008ZM502.612 49.008L501.821 49.6194L502.471 50.4601L503.27 49.7609L502.612 49.008ZM499.732 65.712L500.26 66.5616L500.732 66.2683V65.712H499.732ZM499.732 61.424H500.732V60.424H499.732V61.424ZM492.156 61.424V52.272H490.156V61.424H492.156ZM491.156 53.272H511.764V51.272H491.156V53.272ZM510.764 52.272V70.96H512.764V52.272H510.764ZM511.029 70.2821C506.682 74.9969 500.232 77.768 493.588 77.768V79.768C500.769 79.768 507.759 76.7791 512.499 71.6379L511.029 70.2821ZM493.588 77.768C480.898 77.768 470.332 67.7265 470.332 55.984H468.332C468.332 68.9455 479.911 79.768 493.588 79.768V77.768ZM470.332 55.984C470.332 44.245 480.894 34.264 493.588 34.264V32.264C479.915 32.264 468.332 43.019 468.332 55.984H470.332ZM493.588 34.264C500.233 34.264 506.685 37.0358 511.034 41.6907L512.495 40.3253C507.756 35.2522 500.768 32.264 493.588 32.264V34.264ZM511.106 40.2551L501.954 48.2551L503.27 49.7609L512.422 41.7609L511.106 40.2551ZM503.404 48.3966C501.043 45.3415 497.426 43.528 493.588 43.528V45.528C496.791 45.528 499.83 47.0425 501.821 49.6194L503.404 48.3966ZM493.588 43.528C486.828 43.528 481.132 49.2237 481.132 55.984H483.132C483.132 50.3283 487.933 45.528 493.588 45.528V43.528ZM481.132 55.984C481.132 62.8047 486.824 68.504 493.588 68.504V66.504C487.936 66.504 483.132 61.7073 483.132 55.984H481.132ZM493.588 68.504C495.963 68.504 498.256 67.8054 500.26 66.5616L499.205 64.8624C497.497 65.9226 495.566 66.504 493.588 66.504V68.504ZM500.732 65.712V61.424H498.732V65.712H500.732ZM499.732 60.424H491.156V62.424H499.732V60.424Z" fill="#FF7528" mask="url(#path-1-outside-1_4_883)"/>
<mask id="path-3-outside-2_4_883" maskUnits="userSpaceOnUse" x="1" y="104" width="510" height="70" fill="black">
<rect fill="white" x="1" y="104" width="510" height="70"/>
<path d="M52.1189 171L48.8602 162.434H26.6077L23.3489 171H2.95852L27.5387 107.036H47.9291L72.5093 171H52.1189ZM31.7285 149.12H43.7393L37.7805 133.571L31.7285 149.12ZM78.191 171V107.036H112.641C124.838 107.036 133.31 113.832 133.31 123.143C133.31 129.381 130.052 134.781 124.465 137.482C131.914 140.647 136.29 146.699 136.29 153.775C136.29 164.017 126.979 171 113.944 171H78.191ZM96.1607 131.895H108.265C111.989 131.895 114.689 129.847 114.689 127.054C114.689 124.26 111.989 122.212 108.265 122.212H96.1607V131.895ZM96.1607 155.824H110.965C114.875 155.824 117.668 153.682 117.668 150.703C117.668 147.723 114.875 145.582 110.965 145.582H96.1607V155.824ZM176.785 172.117C157.885 172.117 141.963 156.941 141.963 138.971C141.963 121.002 157.885 105.918 176.785 105.918C195.686 105.918 211.607 121.002 211.607 138.971C211.607 156.941 195.686 172.117 176.785 172.117ZM176.785 155.73C185.537 155.73 192.986 148.096 192.986 138.971C192.986 129.94 185.537 122.305 176.785 122.305C168.033 122.305 160.585 129.94 160.585 138.971C160.585 148.096 168.033 155.73 176.785 155.73ZM250.194 172.117C232.317 172.117 219.748 159.92 219.748 142.602V107.036H237.81V141.671C237.81 149.865 242.931 155.73 250.194 155.73C257.456 155.73 262.577 149.865 262.577 141.671V107.036H280.64V142.602C280.64 159.92 268.07 172.117 250.194 172.117ZM306.592 171V123.143H287.692V107.036H343.556V123.143H324.655V171H306.592ZM376.515 171V107.036H394.578L411.709 137.575L428.841 107.036H446.904V171H428.841V136.737L411.709 167.276L394.578 136.737V171H376.515ZM509.562 123.143H476.137V130.312H506.583V146.42H476.137V154.893H509.562V171H458.074V107.036H509.562V123.143Z"/>
</mask>
<path d="M52.1189 171L51.1843 171.356L51.4295 172H52.1189V171ZM48.8602 162.434L49.7949 162.079L49.5497 161.434H48.8602V162.434ZM26.6077 162.434V161.434H25.9182L25.673 162.079L26.6077 162.434ZM23.3489 171V172H24.0384L24.2836 171.356L23.3489 171ZM2.95852 171L2.02507 170.641L1.50295 172H2.95852V171ZM27.5387 107.036V106.036H26.8517L26.6053 106.677L27.5387 107.036ZM47.9291 107.036L48.8626 106.677L48.6161 106.036H47.9291V107.036ZM72.5093 171V172H73.9649L73.4428 170.641L72.5093 171ZM31.7285 149.12L30.7966 148.757L30.2662 150.12H31.7285V149.12ZM43.7393 149.12V150.12H45.1935L44.6731 148.762L43.7393 149.12ZM37.7805 133.571L38.7143 133.213L37.7877 130.795L36.8486 133.208L37.7805 133.571ZM53.0536 170.644L49.7949 162.079L47.9256 162.79L51.1843 171.356L53.0536 170.644ZM48.8602 161.434H26.6077V163.434H48.8602V161.434ZM25.673 162.079L22.4143 170.644L24.2836 171.356L27.5423 162.79L25.673 162.079ZM23.3489 170H2.95852V172H23.3489V170ZM3.89197 171.359L28.4722 107.394L26.6053 106.677L2.02507 170.641L3.89197 171.359ZM27.5387 108.036H47.9291V106.036H27.5387V108.036ZM46.9957 107.394L71.5759 171.359L73.4428 170.641L48.8626 106.677L46.9957 107.394ZM72.5093 170H52.1189V172H72.5093V170ZM31.7285 150.12H43.7393V148.12H31.7285V150.12ZM44.6731 148.762L38.7143 133.213L36.8467 133.929L42.8055 149.478L44.6731 148.762ZM36.8486 133.208L30.7966 148.757L32.6604 149.483L38.7124 133.934L36.8486 133.208ZM78.191 171H77.191V172H78.191V171ZM78.191 107.036V106.036H77.191V107.036H78.191ZM124.465 137.482L124.03 136.581L122.046 137.54L124.074 138.402L124.465 137.482ZM96.1607 131.895H95.1607V132.895H96.1607V131.895ZM96.1607 122.212V121.212H95.1607V122.212H96.1607ZM96.1607 155.824H95.1607V156.824H96.1607V155.824ZM96.1607 145.582V144.582H95.1607V145.582H96.1607ZM79.191 171V107.036H77.191V171H79.191ZM78.191 108.036H112.641V106.036H78.191V108.036ZM112.641 108.036C124.523 108.036 132.31 114.596 132.31 123.143H134.31C134.31 113.069 125.152 106.036 112.641 106.036V108.036ZM132.31 123.143C132.31 129.014 129.257 134.055 124.03 136.581L124.9 138.382C130.846 135.508 134.31 129.749 134.31 123.143H132.31ZM124.074 138.402C131.218 141.438 135.29 147.166 135.29 153.775H137.29C137.29 146.232 132.609 139.856 124.856 136.561L124.074 138.402ZM135.29 153.775C135.29 158.562 133.126 162.583 129.398 165.434C125.651 168.299 120.292 170 113.944 170V172C120.631 172 126.445 170.21 130.612 167.023C134.798 163.822 137.29 159.231 137.29 153.775H135.29ZM113.944 170H78.191V172H113.944V170ZM96.1607 132.895H108.265V130.895H96.1607V132.895ZM108.265 132.895C112.262 132.895 115.689 130.642 115.689 127.054H113.689C113.689 129.052 111.715 130.895 108.265 130.895V132.895ZM115.689 127.054C115.689 123.466 112.262 121.212 108.265 121.212V123.212C111.715 123.212 113.689 125.055 113.689 127.054H115.689ZM108.265 121.212H96.1607V123.212H108.265V121.212ZM95.1607 122.212V131.895H97.1607V122.212H95.1607ZM96.1607 156.824H110.965V154.824H96.1607V156.824ZM110.965 156.824C115.162 156.824 118.668 154.467 118.668 150.703H116.668C116.668 152.897 114.589 154.824 110.965 154.824V156.824ZM118.668 150.703C118.668 146.938 115.162 144.582 110.965 144.582V146.582C114.589 146.582 116.668 148.508 116.668 150.703H118.668ZM110.965 144.582H96.1607V146.582H110.965V144.582ZM95.1607 145.582V155.824H97.1607V145.582H95.1607ZM176.785 171.117C158.39 171.117 142.963 156.343 142.963 138.971H140.963C140.963 157.539 157.379 173.117 176.785 173.117V171.117ZM142.963 138.971C142.963 121.603 158.387 106.918 176.785 106.918V104.918C157.383 104.918 140.963 120.4 140.963 138.971H142.963ZM176.785 106.918C195.184 106.918 210.607 121.603 210.607 138.971H212.607C212.607 120.4 196.188 104.918 176.785 104.918V106.918ZM210.607 138.971C210.607 156.343 195.18 171.117 176.785 171.117V173.117C196.192 173.117 212.607 157.539 212.607 138.971H210.607ZM176.785 156.73C186.119 156.73 193.986 148.619 193.986 138.971H191.986C191.986 147.573 184.956 154.73 176.785 154.73V156.73ZM193.986 138.971C193.986 129.413 186.115 121.305 176.785 121.305V123.305C184.96 123.305 191.986 130.466 191.986 138.971H193.986ZM176.785 121.305C167.456 121.305 159.585 129.413 159.585 138.971H161.585C161.585 130.466 168.611 123.305 176.785 123.305V121.305ZM159.585 138.971C159.585 148.619 167.452 156.73 176.785 156.73V154.73C168.615 154.73 161.585 147.573 161.585 138.971H159.585ZM219.748 107.036V106.036H218.748V107.036H219.748ZM237.81 107.036H238.81V106.036H237.81V107.036ZM262.577 107.036V106.036H261.577V107.036H262.577ZM280.64 107.036H281.64V106.036H280.64V107.036ZM250.194 171.117C241.487 171.117 234.134 168.15 228.963 163.136C223.794 158.124 220.748 151.011 220.748 142.602H218.748C218.748 151.512 221.986 159.156 227.571 164.572C233.154 169.986 241.024 173.117 250.194 173.117V171.117ZM220.748 142.602V107.036H218.748V142.602H220.748ZM219.748 108.036H237.81V106.036H219.748V108.036ZM236.81 107.036V141.671H238.81V107.036H236.81ZM236.81 141.671C236.81 150.291 242.261 156.73 250.194 156.73V154.73C243.601 154.73 238.81 149.438 238.81 141.671H236.81ZM250.194 156.73C258.126 156.73 263.577 150.291 263.577 141.671H261.577C261.577 149.438 256.786 154.73 250.194 154.73V156.73ZM263.577 141.671V107.036H261.577V141.671H263.577ZM262.577 108.036H280.64V106.036H262.577V108.036ZM279.64 107.036V142.602H281.64V107.036H279.64ZM279.64 142.602C279.64 151.011 276.593 158.124 271.424 163.136C266.253 168.15 258.9 171.117 250.194 171.117V173.117C259.363 173.117 267.233 169.986 272.816 164.572C278.401 159.156 281.64 151.512 281.64 142.602H279.64ZM306.592 171H305.592V172H306.592V171ZM306.592 123.143H307.592V122.143H306.592V123.143ZM287.692 123.143H286.692V124.143H287.692V123.143ZM287.692 107.036V106.036H286.692V107.036H287.692ZM343.556 107.036H344.556V106.036H343.556V107.036ZM343.556 123.143V124.143H344.556V123.143H343.556ZM324.655 123.143V122.143H323.655V123.143H324.655ZM324.655 171V172H325.655V171H324.655ZM307.592 171V123.143H305.592V171H307.592ZM306.592 122.143H287.692V124.143H306.592V122.143ZM288.692 123.143V107.036H286.692V123.143H288.692ZM287.692 108.036H343.556V106.036H287.692V108.036ZM342.556 107.036V123.143H344.556V107.036H342.556ZM343.556 122.143H324.655V124.143H343.556V122.143ZM323.655 123.143V171H325.655V123.143H323.655ZM324.655 170H306.592V172H324.655V170ZM376.515 171H375.515V172H376.515V171ZM376.515 107.036V106.036H375.515V107.036H376.515ZM394.578 107.036L395.45 106.546L395.163 106.036H394.578V107.036ZM411.709 137.575L410.837 138.064L411.709 139.619L412.581 138.064L411.709 137.575ZM428.841 107.036V106.036H428.255L427.969 106.546L428.841 107.036ZM446.904 107.036H447.904V106.036H446.904V107.036ZM446.904 171V172H447.904V171H446.904ZM428.841 171H427.841V172H428.841V171ZM428.841 136.737H429.841V132.91L427.969 136.247L428.841 136.737ZM411.709 167.276L410.837 167.765L411.709 169.32L412.581 167.765L411.709 167.276ZM394.578 136.737L395.45 136.247L393.578 132.91V136.737H394.578ZM394.578 171V172H395.578V171H394.578ZM377.515 171V107.036H375.515V171H377.515ZM376.515 108.036H394.578V106.036H376.515V108.036ZM393.705 107.525L410.837 138.064L412.581 137.085L395.45 106.546L393.705 107.525ZM412.581 138.064L429.713 107.525L427.969 106.546L410.837 137.085L412.581 138.064ZM428.841 108.036H446.904V106.036H428.841V108.036ZM445.904 107.036V171H447.904V107.036H445.904ZM446.904 170H428.841V172H446.904V170ZM429.841 171V136.737H427.841V171H429.841ZM427.969 136.247L410.837 166.786L412.581 167.765L429.713 137.226L427.969 136.247ZM412.581 166.786L395.45 136.247L393.705 137.226L410.837 167.765L412.581 166.786ZM393.578 136.737V171H395.578V136.737H393.578ZM394.578 170H376.515V172H394.578V170ZM509.562 123.143V124.143H510.562V123.143H509.562ZM476.137 123.143V122.143H475.137V123.143H476.137ZM476.137 130.312H475.137V131.312H476.137V130.312ZM506.583 130.312H507.583V129.312H506.583V130.312ZM506.583 146.42V147.42H507.583V146.42H506.583ZM476.137 146.42V145.42H475.137V146.42H476.137ZM476.137 154.893H475.137V155.893H476.137V154.893ZM509.562 154.893H510.562V153.893H509.562V154.893ZM509.562 171V172H510.562V171H509.562ZM458.074 171H457.074V172H458.074V171ZM458.074 107.036V106.036H457.074V107.036H458.074ZM509.562 107.036H510.562V106.036H509.562V107.036ZM509.562 122.143H476.137V124.143H509.562V122.143ZM475.137 123.143V130.312H477.137V123.143H475.137ZM476.137 131.312H506.583V129.312H476.137V131.312ZM505.583 130.312V146.42H507.583V130.312H505.583ZM506.583 145.42H476.137V147.42H506.583V145.42ZM475.137 146.42V154.893H477.137V146.42H475.137ZM476.137 155.893H509.562V153.893H476.137V155.893ZM508.562 154.893V171H510.562V154.893H508.562ZM509.562 170H458.074V172H509.562V170ZM459.074 171V107.036H457.074V171H459.074ZM458.074 108.036H509.562V106.036H458.074V108.036ZM508.562 107.036V123.143H510.562V107.036H508.562Z" fill="#FF7528" mask="url(#path-3-outside-2_4_883)"/>
<path d="M17.6623 55.928H38.1423V67H5.24625V23.032H17.6623V55.928ZM43.6898 67V23.032H56.1058V67H43.6898ZM76.4123 55.928H96.8923V67H63.9963V23.032H76.4123V55.928ZM137.285 67.768C129.349 67.768 121.861 65.272 116.293 60.344L123.205 52.088C127.685 55.608 132.549 57.464 137.733 57.464C141.125 57.464 142.917 56.312 142.917 54.392C142.917 52.28 141.381 51.96 135.301 50.552C125.765 48.376 118.405 45.88 118.405 36.728C118.405 27.96 125.317 22.264 135.749 22.264C143.365 22.264 149.317 24.312 154.181 28.216L147.973 36.984C143.877 34.04 139.397 32.568 135.429 32.568C132.421 32.568 130.949 33.784 130.949 35.448C130.949 37.688 132.485 38.392 138.757 39.736C148.997 41.912 155.397 44.664 155.397 53.048C155.397 62.328 148.293 67.768 137.285 67.768ZM183.268 67.768C170.276 67.768 159.332 57.336 159.332 44.984C159.332 32.632 170.276 22.264 183.268 22.264C196.26 22.264 207.204 32.632 207.204 44.984C207.204 57.336 196.26 67.768 183.268 67.768ZM183.268 56.504C189.284 56.504 194.404 51.256 194.404 44.984C194.404 38.776 189.284 33.528 183.268 33.528C177.252 33.528 172.132 38.776 172.132 44.984C172.132 51.256 177.252 56.504 183.268 56.504ZM213.184 67V23.032H225.6L237.376 44.024L249.152 23.032H261.568V67H249.152V43.448L237.376 64.44L225.6 43.448V67H213.184ZM304.638 34.104H281.662V39.032H302.59V50.104H281.662V55.928H304.638V67H269.246V23.032H304.638V34.104ZM321.558 67V34.104H308.566V23.032H346.966V34.104H333.974V67H321.558ZM380.664 23.032H393.08V67H380.664V50.104H364.6V67H352.184V23.032H364.6V39.032H380.664V23.032ZM401.002 67V23.032H413.418V67H401.002ZM421.309 67V23.032H433.725L450.877 46.584V23.032H463.293V67H450.877L433.725 43.448V67H421.309ZM491.156 50.424V41.272H511.764V59.96C507.22 64.888 500.5 67.768 493.588 67.768C480.404 67.768 469.332 57.336 469.332 44.984C469.332 32.632 480.404 22.264 493.588 22.264C500.5 22.264 507.22 25.144 511.764 30.008L502.612 38.008C500.436 35.192 497.108 33.528 493.588 33.528C487.38 33.528 482.132 38.776 482.132 44.984C482.132 51.256 487.38 56.504 493.588 56.504C495.764 56.504 497.876 55.864 499.732 54.712V50.424H491.156Z" fill="white"/>
<path d="M52.1189 160L48.8602 151.434H26.6077L23.3489 160H2.95852L27.5387 96.0356H47.9291L72.5093 160H52.1189ZM31.7285 138.12H43.7393L37.7805 122.571L31.7285 138.12ZM78.191 160V96.0356H112.641C124.838 96.0356 133.31 102.832 133.31 112.143C133.31 118.381 130.052 123.781 124.465 126.482C131.914 129.647 136.29 135.699 136.29 142.775C136.29 153.017 126.979 160 113.944 160H78.191ZM96.1607 120.895H108.265C111.989 120.895 114.689 118.847 114.689 116.054C114.689 113.26 111.989 111.212 108.265 111.212H96.1607V120.895ZM96.1607 144.824H110.965C114.875 144.824 117.668 142.682 117.668 139.703C117.668 136.723 114.875 134.582 110.965 134.582H96.1607V144.824ZM176.785 161.117C157.885 161.117 141.963 145.941 141.963 127.971C141.963 110.002 157.885 94.9183 176.785 94.9183C195.686 94.9183 211.607 110.002 211.607 127.971C211.607 145.941 195.686 161.117 176.785 161.117ZM176.785 144.73C185.537 144.73 192.986 137.096 192.986 127.971C192.986 118.94 185.537 111.305 176.785 111.305C168.033 111.305 160.585 118.94 160.585 127.971C160.585 137.096 168.033 144.73 176.785 144.73ZM250.194 161.117C232.317 161.117 219.748 148.92 219.748 131.602V96.0356H237.81V130.671C237.81 138.865 242.931 144.73 250.194 144.73C257.456 144.73 262.577 138.865 262.577 130.671V96.0356H280.64V131.602C280.64 148.92 268.07 161.117 250.194 161.117ZM306.592 160V112.143H287.692V96.0356H343.556V112.143H324.655V160H306.592ZM376.515 160V96.0356H394.578L411.709 126.575L428.841 96.0356H446.904V160H428.841V125.737L411.709 156.276L394.578 125.737V160H376.515ZM509.562 112.143H476.137V119.312H506.583V135.42H476.137V143.893H509.562V160H458.074V96.0356H509.562V112.143Z" fill="white"/>
</svg>
