<svg width="1165" height="273" viewBox="0 0 1165 273" fill="none" xmlns="http://www.w3.org/2000/svg">
<mask id="path-1-outside-1_2_30" maskUnits="userSpaceOnUse" x="10.0014" y="11.9998" width="1153" height="97" fill="black">
<rect fill="white" x="10.0014" y="11.9998" width="1153" height="97"/>
<path d="M84.3975 37.8947H36.83V50.7472H80.1575V73.6697H36.83V106H11.1249V14.9722H84.3975V37.8947ZM139.964 107.59C114.524 107.59 96.6362 90.2323 96.6362 65.5872V14.9722H122.341V64.2622C122.341 75.9222 129.629 84.2697 139.964 84.2697C150.299 84.2697 157.586 75.9222 157.586 64.2622V14.9722H183.291V65.5872C183.291 90.2323 165.404 107.59 139.964 107.59ZM223.935 83.0772H266.335V106H198.23V14.9722H223.935V83.0772ZM302.995 83.0772H345.395V106H277.29V14.9722H302.995V83.0772ZM429.021 107.59C412.591 107.59 397.089 102.422 385.561 92.2198L399.871 75.1272C409.146 82.4147 419.216 86.2573 429.949 86.2573C436.971 86.2573 440.681 83.8722 440.681 79.8972C440.681 75.5247 437.501 74.8622 424.914 71.9472C405.171 67.4422 389.934 62.2747 389.934 43.3272C389.934 25.1747 404.244 13.3822 425.841 13.3822C441.609 13.3822 453.931 17.6222 464.001 25.7047L451.149 43.8572C442.669 37.7622 433.394 34.7147 425.179 34.7147C418.951 34.7147 415.904 37.2322 415.904 40.6772C415.904 45.3147 419.084 46.7722 432.069 49.5547C453.269 54.0597 466.519 59.7572 466.519 77.1147C466.519 96.3273 451.811 107.59 429.021 107.59ZM500.105 106V37.8947H473.208V14.9722H552.708V37.8947H525.81V106H500.105ZM620.348 106L615.711 93.8098H584.043L579.406 106H550.388L585.368 14.9722H614.386L649.366 106H620.348ZM591.331 74.8622H608.423L599.943 52.7347L591.331 74.8622ZM703.561 107.59C676.664 107.59 654.006 85.9923 654.006 60.4197C654.006 34.8472 676.664 13.3822 703.561 13.3822C718.136 13.3822 731.386 19.6097 740.529 29.4147L721.581 45.9772C717.341 40.4122 710.716 36.7022 703.561 36.7022C691.106 36.7022 680.506 47.5672 680.506 60.4197C680.506 73.4047 691.106 84.2697 703.561 84.2697C710.849 84.2697 717.341 80.5597 721.714 74.9947L740.529 91.4248C731.386 101.362 718.136 107.59 703.561 107.59ZM751.004 106V14.9722H776.709V50.8797L807.316 14.9722H837.659L804.004 52.9997L840.309 106H809.569L786.116 71.5497L776.709 81.8847V106H751.004ZM883.116 106V14.9722H917.036C948.836 14.9722 971.361 33.7872 971.361 60.4197C971.361 87.0523 948.836 106 917.036 106H883.116ZM908.821 82.6797H921.276C935.056 82.6797 944.861 73.4047 944.861 60.4197C944.861 47.4347 935.056 38.2922 921.276 38.2922H908.821V82.6797ZM1057.06 37.8947H1009.49V48.0972H1052.82V71.0197H1009.49V83.0772H1057.06V106H983.785V14.9722H1057.06V37.8947ZM1132.23 14.9722H1161.25L1126.27 106H1097.25L1062.27 14.9722H1091.29L1111.83 68.2372L1132.23 14.9722Z"/>
</mask>
<path d="M84.3975 37.8947V38.8947H85.3975V37.8947H84.3975ZM36.83 37.8947V36.8947H35.83V37.8947H36.83ZM36.83 50.7472H35.83V51.7472H36.83V50.7472ZM80.1575 50.7472H81.1575V49.7472H80.1575V50.7472ZM80.1575 73.6697V74.6697H81.1575V73.6697H80.1575ZM36.83 73.6697V72.6697H35.83V73.6697H36.83ZM36.83 106V107H37.83V106H36.83ZM11.1249 106H10.1249V107H11.1249V106ZM11.1249 14.9722V13.9722H10.1249V14.9722H11.1249ZM84.3975 14.9722H85.3975V13.9722H84.3975V14.9722ZM84.3975 36.8947H36.83V38.8947H84.3975V36.8947ZM35.83 37.8947V50.7472H37.83V37.8947H35.83ZM36.83 51.7472H80.1575V49.7472H36.83V51.7472ZM79.1575 50.7472V73.6697H81.1575V50.7472H79.1575ZM80.1575 72.6697H36.83V74.6697H80.1575V72.6697ZM35.83 73.6697V106H37.83V73.6697H35.83ZM36.83 105H11.1249V107H36.83V105ZM12.1249 106V14.9722H10.1249V106H12.1249ZM11.1249 15.9722H84.3975V13.9722H11.1249V15.9722ZM83.3975 14.9722V37.8947H85.3975V14.9722H83.3975ZM96.6362 14.9722V13.9722H95.6362V14.9722H96.6362ZM122.341 14.9722H123.341V13.9722H122.341V14.9722ZM157.586 14.9722V13.9722H156.586V14.9722H157.586ZM183.291 14.9722H184.291V13.9722H183.291V14.9722ZM139.964 106.59C127.475 106.59 116.902 102.333 109.456 95.1125C102.012 87.8943 97.6362 77.6592 97.6362 65.5872H95.6362C95.6362 78.1603 100.204 88.9265 108.064 96.5483C115.922 104.168 127.012 108.59 139.964 108.59V106.59ZM97.6362 65.5872V14.9722H95.6362V65.5872H97.6362ZM96.6362 15.9722H122.341V13.9722H96.6362V15.9722ZM121.341 14.9722V64.2622H123.341V14.9722H121.341ZM121.341 64.2622C121.341 76.3489 128.959 85.2697 139.964 85.2697V83.2697C130.299 83.2697 123.341 75.4956 123.341 64.2622H121.341ZM139.964 85.2697C150.969 85.2697 158.586 76.3489 158.586 64.2622H156.586C156.586 75.4956 149.629 83.2697 139.964 83.2697V85.2697ZM158.586 64.2622V14.9722H156.586V64.2622H158.586ZM157.586 15.9722H183.291V13.9722H157.586V15.9722ZM182.291 14.9722V65.5872H184.291V14.9722H182.291ZM182.291 65.5872C182.291 77.6592 177.915 87.8943 170.471 95.1125C163.025 102.333 152.452 106.59 139.964 106.59V108.59C152.915 108.59 164.006 104.168 171.864 96.5483C179.724 88.9265 184.291 78.1603 184.291 65.5872H182.291ZM223.935 83.0772H222.935V84.0772H223.935V83.0772ZM266.335 83.0772H267.335V82.0772H266.335V83.0772ZM266.335 106V107H267.335V106H266.335ZM198.23 106H197.23V107H198.23V106ZM198.23 14.9722V13.9722H197.23V14.9722H198.23ZM223.935 14.9722H224.935V13.9722H223.935V14.9722ZM223.935 84.0772H266.335V82.0772H223.935V84.0772ZM265.335 83.0772V106H267.335V83.0772H265.335ZM266.335 105H198.23V107H266.335V105ZM199.23 106V14.9722H197.23V106H199.23ZM198.23 15.9722H223.935V13.9722H198.23V15.9722ZM222.935 14.9722V83.0772H224.935V14.9722H222.935ZM302.995 83.0772H301.995V84.0772H302.995V83.0772ZM345.395 83.0772H346.395V82.0772H345.395V83.0772ZM345.395 106V107H346.395V106H345.395ZM277.29 106H276.29V107H277.29V106ZM277.29 14.9722V13.9722H276.29V14.9722H277.29ZM302.995 14.9722H303.995V13.9722H302.995V14.9722ZM302.995 84.0772H345.395V82.0772H302.995V84.0772ZM344.395 83.0772V106H346.395V83.0772H344.395ZM345.395 105H277.29V107H345.395V105ZM278.29 106V14.9722H276.29V106H278.29ZM277.29 15.9722H302.995V13.9722H277.29V15.9722ZM301.995 14.9722V83.0772H303.995V14.9722H301.995ZM385.561 92.2198L384.794 91.5778L384.17 92.3238L384.898 92.9686L385.561 92.2198ZM399.871 75.1272L400.489 74.3409L399.727 73.742L399.104 74.4853L399.871 75.1272ZM424.914 71.9472L425.139 70.973L425.136 70.9723L424.914 71.9472ZM464.001 25.7047L464.817 26.2825L465.361 25.5141L464.627 24.9248L464.001 25.7047ZM451.149 43.8572L450.565 44.6692L451.383 45.257L451.965 44.4351L451.149 43.8572ZM432.069 49.5547L431.859 50.5325L431.861 50.5329L432.069 49.5547ZM429.021 106.59C412.795 106.59 397.541 101.487 386.224 91.4709L384.898 92.9686C396.637 103.358 412.387 108.59 429.021 108.59V106.59ZM386.328 92.8617L400.638 75.7692L399.104 74.4853L384.794 91.5778L386.328 92.8617ZM399.253 75.9136C408.677 83.3179 418.959 87.2573 429.949 87.2573V85.2573C419.473 85.2573 409.615 81.5116 400.489 74.3409L399.253 75.9136ZM429.949 87.2573C433.548 87.2573 436.44 86.6502 438.466 85.4233C440.55 84.1617 441.681 82.2585 441.681 79.8972H439.681C439.681 81.5109 438.958 82.7878 437.43 83.7125C435.846 84.6718 433.372 85.2573 429.949 85.2573V87.2573ZM441.681 79.8972C441.681 78.683 441.46 77.6002 440.813 76.6553C440.174 75.7227 439.201 75.0422 437.931 74.4653C435.447 73.3358 431.371 72.4161 425.139 70.973L424.688 72.9215C431.044 74.3933 434.852 75.2624 437.104 76.286C438.203 76.7858 438.812 77.2729 439.162 77.7854C439.505 78.2855 439.681 78.9252 439.681 79.8972H441.681ZM425.136 70.9723C415.249 68.7162 406.68 66.3291 400.578 62.2235C397.548 60.1843 395.149 57.7352 393.503 54.6842C391.857 51.6335 390.934 47.9263 390.934 43.3272H388.934C388.934 48.2019 389.915 52.2459 391.743 55.6339C393.571 59.0216 396.215 61.6986 399.462 63.8828C405.914 68.2241 414.836 70.6733 424.691 72.9222L425.136 70.9723ZM390.934 43.3272C390.934 34.5357 394.388 27.3359 400.427 22.3165C406.484 17.2824 415.217 14.3822 425.841 14.3822V12.3822C414.868 12.3822 405.647 15.3782 399.149 20.7784C392.634 26.1934 388.934 33.9662 388.934 43.3272H390.934ZM425.841 14.3822C441.412 14.3822 453.505 18.5627 463.375 26.4845L464.627 24.9248C454.357 16.6817 441.805 12.3822 425.841 12.3822V14.3822ZM463.185 25.1268L450.332 43.2794L451.965 44.4351L464.817 26.2825L463.185 25.1268ZM451.732 43.0452C443.107 36.846 433.632 33.7147 425.179 33.7147V35.7147C433.155 35.7147 442.23 38.6784 450.565 44.6692L451.732 43.0452ZM425.179 33.7147C421.949 33.7147 419.405 34.3647 417.639 35.5803C415.833 36.8229 414.904 38.6187 414.904 40.6772H416.904C416.904 39.2907 417.498 38.1052 418.773 37.2278C420.087 36.3235 422.181 35.7147 425.179 35.7147V33.7147ZM414.904 40.6772C414.904 41.9507 415.122 43.108 415.747 44.1452C416.369 45.1798 417.335 45.9933 418.645 46.6936C421.211 48.0644 425.401 49.1487 431.859 50.5325L432.278 48.5769C425.751 47.1783 421.858 46.1425 419.588 44.9296C418.481 44.3379 417.839 43.7437 417.46 43.1137C417.082 42.4864 416.904 41.7225 416.904 40.6772H414.904ZM431.861 50.5329C442.459 52.785 450.891 55.3048 456.672 59.3353C462.361 63.302 465.519 68.7568 465.519 77.1147H467.519C467.519 68.1152 464.051 62.0424 457.816 57.6947C451.671 53.4109 442.878 50.8295 432.276 48.5765L431.861 50.5329ZM465.519 77.1147C465.519 86.4406 461.962 93.7627 455.692 98.7759C449.394 103.811 440.264 106.59 429.021 106.59V108.59C440.568 108.59 450.187 105.738 456.941 100.338C463.721 94.9169 467.519 87.0014 467.519 77.1147H465.519ZM500.105 106H499.105V107H500.105V106ZM500.105 37.8947H501.105V36.8947H500.105V37.8947ZM473.208 37.8947H472.208V38.8947H473.208V37.8947ZM473.208 14.9722V13.9722H472.208V14.9722H473.208ZM552.708 14.9722H553.708V13.9722H552.708V14.9722ZM552.708 37.8947V38.8947H553.708V37.8947H552.708ZM525.81 37.8947V36.8947H524.81V37.8947H525.81ZM525.81 106V107H526.81V106H525.81ZM501.105 106V37.8947H499.105V106H501.105ZM500.105 36.8947H473.208V38.8947H500.105V36.8947ZM474.208 37.8947V14.9722H472.208V37.8947H474.208ZM473.208 15.9722H552.708V13.9722H473.208V15.9722ZM551.708 14.9722V37.8947H553.708V14.9722H551.708ZM552.708 36.8947H525.81V38.8947H552.708V36.8947ZM524.81 37.8947V106H526.81V37.8947H524.81ZM525.81 105H500.105V107H525.81V105ZM620.348 106L619.414 106.355L619.659 107H620.348V106ZM615.711 93.8098L616.645 93.4542L616.4 92.8098H615.711V93.8098ZM584.043 93.8098V92.8098H583.354L583.109 93.4542L584.043 93.8098ZM579.406 106V107H580.095L580.34 106.355L579.406 106ZM550.388 106L549.455 105.641L548.933 107H550.388V106ZM585.368 14.9722V13.9722H584.681L584.435 14.6135L585.368 14.9722ZM614.386 14.9722L615.319 14.6135L615.073 13.9722H614.386V14.9722ZM649.366 106V107H650.821L650.299 105.641L649.366 106ZM591.331 74.8622L590.399 74.4995L589.868 75.8622H591.331V74.8622ZM608.423 74.8622V75.8622H609.877L609.357 74.5044L608.423 74.8622ZM599.943 52.7347L600.877 52.3769L599.95 49.9592L599.011 52.372L599.943 52.7347ZM621.283 105.644L616.645 93.4542L614.776 94.1653L619.414 106.355L621.283 105.644ZM615.711 92.8098H584.043V94.8098H615.711V92.8098ZM583.109 93.4542L578.471 105.644L580.34 106.355L584.978 94.1653L583.109 93.4542ZM579.406 105H550.388V107H579.406V105ZM551.322 106.358L586.302 15.3309L584.435 14.6135L549.455 105.641L551.322 106.358ZM585.368 15.9722H614.386V13.9722H585.368V15.9722ZM613.452 15.3309L648.432 106.358L650.299 105.641L615.319 14.6135L613.452 15.3309ZM649.366 105H620.348V107H649.366V105ZM591.331 75.8622H608.423V73.8622H591.331V75.8622ZM609.357 74.5044L600.877 52.3769L599.009 53.0926L607.489 75.2201L609.357 74.5044ZM599.011 52.372L590.399 74.4995L592.263 75.225L600.875 53.0974L599.011 52.372ZM740.529 29.4147L741.187 30.1676L741.965 29.488L741.26 28.7327L740.529 29.4147ZM721.581 45.9772L720.786 46.5832L721.434 47.4341L722.24 46.7301L721.581 45.9772ZM721.714 74.9947L722.372 74.2415L721.578 73.5487L720.928 74.3769L721.714 74.9947ZM740.529 91.4248L741.265 92.1018L741.96 91.3466L741.187 90.6715L740.529 91.4248ZM703.561 106.59C677.17 106.59 655.006 85.3945 655.006 60.4197H653.006C653.006 86.59 676.158 108.59 703.561 108.59V106.59ZM655.006 60.4197C655.006 35.4485 677.166 14.3822 703.561 14.3822V12.3822C676.162 12.3822 653.006 34.2459 653.006 60.4197H655.006ZM703.561 14.3822C717.849 14.3822 730.837 20.4869 739.798 30.0967L741.26 28.7327C731.936 18.7324 718.424 12.3822 703.561 12.3822V14.3822ZM739.871 28.6618L720.923 45.2243L722.24 46.7301L741.187 30.1676L739.871 28.6618ZM722.377 45.3712C717.971 39.5883 711.065 35.7022 703.561 35.7022V37.7022C710.368 37.7022 716.712 41.2361 720.786 46.5832L722.377 45.3712ZM703.561 35.7022C690.529 35.7022 679.506 47.0407 679.506 60.4197H681.506C681.506 48.0937 691.684 37.7022 703.561 37.7022V35.7022ZM679.506 60.4197C679.506 73.9276 690.525 85.2697 703.561 85.2697V83.2697C691.688 83.2697 681.506 72.8819 681.506 60.4197H679.506ZM703.561 85.2697C711.202 85.2697 717.969 81.3797 722.5 75.6126L720.928 74.3769C716.714 79.7398 710.495 83.2697 703.561 83.2697V85.2697ZM721.056 75.748L739.871 92.178L741.187 90.6715L722.372 74.2415L721.056 75.748ZM739.793 90.7477C730.834 100.486 717.848 106.59 703.561 106.59V108.59C718.425 108.59 731.939 102.239 741.265 92.1018L739.793 90.7477ZM751.004 106H750.004V107H751.004V106ZM751.004 14.9722V13.9722H750.004V14.9722H751.004ZM776.709 14.9722H777.709V13.9722H776.709V14.9722ZM776.709 50.8797H775.709V53.5944L777.47 51.5284L776.709 50.8797ZM807.316 14.9722V13.9722H806.855L806.555 14.3235L807.316 14.9722ZM837.659 14.9722L838.408 15.6349L839.879 13.9722H837.659V14.9722ZM804.004 52.9997L803.255 52.337L802.738 52.9212L803.179 53.5648L804.004 52.9997ZM840.309 106V107H842.206L841.134 105.435L840.309 106ZM809.569 106L808.742 106.563L809.04 107H809.569V106ZM786.116 71.5497L786.943 70.987L786.23 69.9395L785.377 70.8766L786.116 71.5497ZM776.709 81.8847L775.969 81.2116L775.709 81.4978V81.8847H776.709ZM776.709 106V107H777.709V106H776.709ZM752.004 106V14.9722H750.004V106H752.004ZM751.004 15.9722H776.709V13.9722H751.004V15.9722ZM775.709 14.9722V50.8797H777.709V14.9722H775.709ZM777.47 51.5284L808.077 15.6209L806.555 14.3235L775.948 50.231L777.47 51.5284ZM807.316 15.9722H837.659V13.9722H807.316V15.9722ZM836.91 14.3094L803.255 52.337L804.753 53.6625L838.408 15.6349L836.91 14.3094ZM803.179 53.5648L839.484 106.565L841.134 105.435L804.829 52.4346L803.179 53.5648ZM840.309 105H809.569V107H840.309V105ZM810.395 105.437L786.943 70.987L785.29 72.1125L808.742 106.563L810.395 105.437ZM785.377 70.8766L775.969 81.2116L777.448 82.5579L786.856 72.2229L785.377 70.8766ZM775.709 81.8847V106H777.709V81.8847H775.709ZM776.709 105H751.004V107H776.709V105ZM883.116 106H882.116V107H883.116V106ZM883.116 14.9722V13.9722H882.116V14.9722H883.116ZM908.821 82.6797H907.821V83.6797H908.821V82.6797ZM908.821 38.2922V37.2922H907.821V38.2922H908.821ZM884.116 106V14.9722H882.116V106H884.116ZM883.116 15.9722H917.036V13.9722H883.116V15.9722ZM917.036 15.9722C948.458 15.9722 970.361 34.4996 970.361 60.4197H972.361C972.361 33.0748 949.213 13.9722 917.036 13.9722V15.9722ZM970.361 60.4197C970.361 86.3434 948.454 105 917.036 105V107C949.217 107 972.361 87.7611 972.361 60.4197H970.361ZM917.036 105H883.116V107H917.036V105ZM908.821 83.6797H921.276V81.6797H908.821V83.6797ZM921.276 83.6797C935.553 83.6797 945.861 74.0101 945.861 60.4197H943.861C943.861 72.7994 934.558 81.6797 921.276 81.6797V83.6797ZM945.861 60.4197C945.861 53.6639 943.304 47.8634 938.919 43.7567C934.539 39.6543 928.389 37.2922 921.276 37.2922V39.2922C927.943 39.2922 933.585 41.5013 937.552 45.2165C941.515 48.9273 943.861 54.1905 943.861 60.4197H945.861ZM921.276 37.2922H908.821V39.2922H921.276V37.2922ZM907.821 38.2922V82.6797H909.821V38.2922H907.821ZM1057.06 37.8947V38.8947H1058.06V37.8947H1057.06ZM1009.49 37.8947V36.8947H1008.49V37.8947H1009.49ZM1009.49 48.0972H1008.49V49.0972H1009.49V48.0972ZM1052.82 48.0972H1053.82V47.0972H1052.82V48.0972ZM1052.82 71.0197V72.0197H1053.82V71.0197H1052.82ZM1009.49 71.0197V70.0197H1008.49V71.0197H1009.49ZM1009.49 83.0772H1008.49V84.0772H1009.49V83.0772ZM1057.06 83.0772H1058.06V82.0772H1057.06V83.0772ZM1057.06 106V107H1058.06V106H1057.06ZM983.785 106H982.785V107H983.785V106ZM983.785 14.9722V13.9722H982.785V14.9722H983.785ZM1057.06 14.9722H1058.06V13.9722H1057.06V14.9722ZM1057.06 36.8947H1009.49V38.8947H1057.06V36.8947ZM1008.49 37.8947V48.0972H1010.49V37.8947H1008.49ZM1009.49 49.0972H1052.82V47.0972H1009.49V49.0972ZM1051.82 48.0972V71.0197H1053.82V48.0972H1051.82ZM1052.82 70.0197H1009.49V72.0197H1052.82V70.0197ZM1008.49 71.0197V83.0772H1010.49V71.0197H1008.49ZM1009.49 84.0772H1057.06V82.0772H1009.49V84.0772ZM1056.06 83.0772V106H1058.06V83.0772H1056.06ZM1057.06 105H983.785V107H1057.06V105ZM984.785 106V14.9722H982.785V106H984.785ZM983.785 15.9722H1057.06V13.9722H983.785V15.9722ZM1056.06 14.9722V37.8947H1058.06V14.9722H1056.06ZM1132.23 14.9722V13.9722H1131.55L1131.3 14.6144L1132.23 14.9722ZM1161.25 14.9722L1162.18 15.3309L1162.71 13.9722H1161.25V14.9722ZM1126.27 106V107H1126.96L1127.2 106.358L1126.27 106ZM1097.25 106L1096.32 106.358L1096.57 107H1097.25V106ZM1062.27 14.9722V13.9722H1060.82L1061.34 15.3309L1062.27 14.9722ZM1091.29 14.9722L1092.22 14.6124L1091.98 13.9722H1091.29V14.9722ZM1111.83 68.2372L1110.9 68.597L1111.83 71.0247L1112.76 68.595L1111.83 68.2372ZM1132.23 15.9722H1161.25V13.9722H1132.23V15.9722ZM1160.32 14.6135L1125.34 105.641L1127.2 106.358L1162.18 15.3309L1160.32 14.6135ZM1126.27 105H1097.25V107H1126.27V105ZM1098.19 105.641L1063.21 14.6135L1061.34 15.3309L1096.32 106.358L1098.19 105.641ZM1062.27 15.9722H1091.29V13.9722H1062.27V15.9722ZM1090.36 15.3319L1110.9 68.597L1112.76 67.8775L1092.22 14.6124L1090.36 15.3319ZM1112.76 68.595L1133.17 15.3299L1131.3 14.6144L1110.89 67.8795L1112.76 68.595Z" fill="#FF7528" mask="url(#path-1-outside-1_2_30)"/>
<mask id="path-3-outside-2_2_30" maskUnits="userSpaceOnUse" x="9" y="138.312" width="1149" height="107" fill="black">
<rect fill="white" x="9" y="138.312" width="1149" height="107"/>
<path d="M10.9116 242.312V141.115H39.4883V242.312H10.9116ZM57.6491 242.312V141.115H86.2258L125.703 195.322V141.115H154.28V242.312H125.703L86.2258 188.104V242.312H57.6491ZM236.596 242.312V166.598H206.694V141.115H295.076V166.598H265.173V242.312H236.596ZM372.635 141.115H401.212V242.312H372.635V203.424H335.662V242.312H307.085V141.115H335.662V177.94H372.635V141.115ZM500.315 166.598H447.434V177.94H495.602V203.424H447.434V216.828H500.315V242.312H418.857V141.115H500.315V166.598ZM554.939 242.312V141.115H583.516L610.62 189.43L637.723 141.115H666.3V242.312H637.723V188.104L610.62 236.42L583.516 188.104V242.312H554.939ZM753.058 242.312L747.902 228.76H712.697L707.541 242.312H675.282L714.17 141.115H746.429L785.317 242.312H753.058ZM720.799 207.696H739.801L730.373 183.096L720.799 207.696ZM794.306 242.312V141.115H822.883V181.034L856.91 141.115H890.642L853.227 183.391L893.588 242.312H859.414L833.341 204.013L822.883 215.503V242.312H794.306ZM901.632 242.312V141.115H930.209V242.312H901.632ZM948.37 242.312V141.115H976.946L1016.42 195.322V141.115H1045V242.312H1016.42L976.946 188.104V242.312H948.37ZM1109.13 204.16V183.096H1156.56V226.108C1146.1 237.451 1130.64 244.079 1114.73 244.079C1084.38 244.079 1058.9 220.069 1058.9 191.64C1058.9 163.21 1084.38 139.347 1114.73 139.347C1130.64 139.347 1146.1 145.976 1156.56 157.171L1135.5 175.584C1130.49 169.102 1122.83 165.272 1114.73 165.272C1100.44 165.272 1088.36 177.351 1088.36 191.64C1088.36 206.075 1100.44 218.154 1114.73 218.154C1119.74 218.154 1124.6 216.681 1128.87 214.03V204.16H1109.13Z"/>
</mask>
<path d="M10.9116 242.312H9.91162V243.312H10.9116V242.312ZM10.9116 141.115V140.115H9.91162V141.115H10.9116ZM39.4883 141.115H40.4883V140.115H39.4883V141.115ZM39.4883 242.312V243.312H40.4883V242.312H39.4883ZM11.9116 242.312V141.115H9.91162V242.312H11.9116ZM10.9116 142.115H39.4883V140.115H10.9116V142.115ZM38.4883 141.115V242.312H40.4883V141.115H38.4883ZM39.4883 241.312H10.9116V243.312H39.4883V241.312ZM57.6491 242.312H56.6491V243.312H57.6491V242.312ZM57.6491 141.115V140.115H56.6491V141.115H57.6491ZM86.2258 141.115L87.0342 140.526L86.7346 140.115H86.2258V141.115ZM125.703 195.322L124.895 195.911L126.703 198.394V195.322H125.703ZM125.703 141.115V140.115H124.703V141.115H125.703ZM154.28 141.115H155.28V140.115H154.28V141.115ZM154.28 242.312V243.312H155.28V242.312H154.28ZM125.703 242.312L124.895 242.9L125.194 243.312H125.703V242.312ZM86.2258 188.104L87.0342 187.516L85.2258 185.032V188.104H86.2258ZM86.2258 242.312V243.312H87.2258V242.312H86.2258ZM58.6491 242.312V141.115H56.6491V242.312H58.6491ZM57.6491 142.115H86.2258V140.115H57.6491V142.115ZM85.4175 141.703L124.895 195.911L126.511 194.733L87.0342 140.526L85.4175 141.703ZM126.703 195.322V141.115H124.703V195.322H126.703ZM125.703 142.115H154.28V140.115H125.703V142.115ZM153.28 141.115V242.312H155.28V141.115H153.28ZM154.28 241.312H125.703V243.312H154.28V241.312ZM126.511 241.723L87.0342 187.516L85.4175 188.693L124.895 242.9L126.511 241.723ZM85.2258 188.104V242.312H87.2258V188.104H85.2258ZM86.2258 241.312H57.6491V243.312H86.2258V241.312ZM236.596 242.312H235.596V243.312H236.596V242.312ZM236.596 166.598H237.596V165.598H236.596V166.598ZM206.694 166.598H205.694V167.598H206.694V166.598ZM206.694 141.115V140.115H205.694V141.115H206.694ZM295.076 141.115H296.076V140.115H295.076V141.115ZM295.076 166.598V167.598H296.076V166.598H295.076ZM265.173 166.598V165.598H264.173V166.598H265.173ZM265.173 242.312V243.312H266.173V242.312H265.173ZM237.596 242.312V166.598H235.596V242.312H237.596ZM236.596 165.598H206.694V167.598H236.596V165.598ZM207.694 166.598V141.115H205.694V166.598H207.694ZM206.694 142.115H295.076V140.115H206.694V142.115ZM294.076 141.115V166.598H296.076V141.115H294.076ZM295.076 165.598H265.173V167.598H295.076V165.598ZM264.173 166.598V242.312H266.173V166.598H264.173ZM265.173 241.312H236.596V243.312H265.173V241.312ZM372.635 141.115V140.115H371.635V141.115H372.635ZM401.212 141.115H402.212V140.115H401.212V141.115ZM401.212 242.312V243.312H402.212V242.312H401.212ZM372.635 242.312H371.635V243.312H372.635V242.312ZM372.635 203.424H373.635V202.424H372.635V203.424ZM335.662 203.424V202.424H334.662V203.424H335.662ZM335.662 242.312V243.312H336.662V242.312H335.662ZM307.085 242.312H306.085V243.312H307.085V242.312ZM307.085 141.115V140.115H306.085V141.115H307.085ZM335.662 141.115H336.662V140.115H335.662V141.115ZM335.662 177.94H334.662V178.94H335.662V177.94ZM372.635 177.94V178.94H373.635V177.94H372.635ZM372.635 142.115H401.212V140.115H372.635V142.115ZM400.212 141.115V242.312H402.212V141.115H400.212ZM401.212 241.312H372.635V243.312H401.212V241.312ZM373.635 242.312V203.424H371.635V242.312H373.635ZM372.635 202.424H335.662V204.424H372.635V202.424ZM334.662 203.424V242.312H336.662V203.424H334.662ZM335.662 241.312H307.085V243.312H335.662V241.312ZM308.085 242.312V141.115H306.085V242.312H308.085ZM307.085 142.115H335.662V140.115H307.085V142.115ZM334.662 141.115V177.94H336.662V141.115H334.662ZM335.662 178.94H372.635V176.94H335.662V178.94ZM373.635 177.94V141.115H371.635V177.94H373.635ZM500.315 166.598V167.598H501.315V166.598H500.315ZM447.434 166.598V165.598H446.434V166.598H447.434ZM447.434 177.94H446.434V178.94H447.434V177.94ZM495.602 177.94H496.602V176.94H495.602V177.94ZM495.602 203.424V204.424H496.602V203.424H495.602ZM447.434 203.424V202.424H446.434V203.424H447.434ZM447.434 216.828H446.434V217.828H447.434V216.828ZM500.315 216.828H501.315V215.828H500.315V216.828ZM500.315 242.312V243.312H501.315V242.312H500.315ZM418.857 242.312H417.857V243.312H418.857V242.312ZM418.857 141.115V140.115H417.857V141.115H418.857ZM500.315 141.115H501.315V140.115H500.315V141.115ZM500.315 165.598H447.434V167.598H500.315V165.598ZM446.434 166.598V177.94H448.434V166.598H446.434ZM447.434 178.94H495.602V176.94H447.434V178.94ZM494.602 177.94V203.424H496.602V177.94H494.602ZM495.602 202.424H447.434V204.424H495.602V202.424ZM446.434 203.424V216.828H448.434V203.424H446.434ZM447.434 217.828H500.315V215.828H447.434V217.828ZM499.315 216.828V242.312H501.315V216.828H499.315ZM500.315 241.312H418.857V243.312H500.315V241.312ZM419.857 242.312V141.115H417.857V242.312H419.857ZM418.857 142.115H500.315V140.115H418.857V142.115ZM499.315 141.115V166.598H501.315V141.115H499.315ZM554.939 242.312H553.939V243.312H554.939V242.312ZM554.939 141.115V140.115H553.939V141.115H554.939ZM583.516 141.115L584.388 140.625L584.102 140.115H583.516V141.115ZM610.62 189.43L609.747 189.919L610.62 191.474L611.492 189.919L610.62 189.43ZM637.723 141.115V140.115H637.138L636.851 140.625L637.723 141.115ZM666.3 141.115H667.3V140.115H666.3V141.115ZM666.3 242.312V243.312H667.3V242.312H666.3ZM637.723 242.312H636.723V243.312H637.723V242.312ZM637.723 188.104H638.723V184.278L636.851 187.615L637.723 188.104ZM610.62 236.42L609.747 236.909L610.62 238.463L611.492 236.909L610.62 236.42ZM583.516 188.104L584.388 187.615L582.516 184.278V188.104H583.516ZM583.516 242.312V243.312H584.516V242.312H583.516ZM555.939 242.312V141.115H553.939V242.312H555.939ZM554.939 142.115H583.516V140.115H554.939V142.115ZM582.644 141.604L609.747 189.919L611.492 188.941L584.388 140.625L582.644 141.604ZM611.492 189.919L638.595 141.604L636.851 140.625L609.747 188.941L611.492 189.919ZM637.723 142.115H666.3V140.115H637.723V142.115ZM665.3 141.115V242.312H667.3V141.115H665.3ZM666.3 241.312H637.723V243.312H666.3V241.312ZM638.723 242.312V188.104H636.723V242.312H638.723ZM636.851 187.615L609.747 235.93L611.492 236.909L638.595 188.594L636.851 187.615ZM611.492 235.93L584.388 187.615L582.644 188.594L609.747 236.909L611.492 235.93ZM582.516 188.104V242.312H584.516V188.104H582.516ZM583.516 241.312H554.939V243.312H583.516V241.312ZM753.058 242.312L752.123 242.667L752.368 243.312H753.058V242.312ZM747.902 228.76L748.837 228.404L748.592 227.76H747.902V228.76ZM712.697 228.76V227.76H712.007L711.762 228.404L712.697 228.76ZM707.541 242.312V243.312H708.231L708.476 242.667L707.541 242.312ZM675.282 242.312L674.349 241.953L673.826 243.312H675.282V242.312ZM714.17 141.115V140.115H713.483L713.236 140.756L714.17 141.115ZM746.429 141.115L747.363 140.756L747.116 140.115H746.429V141.115ZM785.317 242.312V243.312H786.773L786.25 241.953L785.317 242.312ZM720.799 207.696L719.867 207.333L719.336 208.696H720.799V207.696ZM739.801 207.696V208.696H741.255L740.734 207.338L739.801 207.696ZM730.373 183.096L731.307 182.738L730.38 180.32L729.441 182.733L730.373 183.096ZM753.992 241.956L748.837 228.404L746.968 229.115L752.123 242.667L753.992 241.956ZM747.902 227.76H712.697V229.76H747.902V227.76ZM711.762 228.404L706.607 241.956L708.476 242.667L713.632 229.115L711.762 228.404ZM707.541 241.312H675.282V243.312H707.541V241.312ZM676.215 242.67L715.103 141.473L713.236 140.756L674.349 241.953L676.215 242.67ZM714.17 142.115H746.429V140.115H714.17V142.115ZM745.496 141.473L784.384 242.67L786.25 241.953L747.363 140.756L745.496 141.473ZM785.317 241.312H753.058V243.312H785.317V241.312ZM720.799 208.696H739.801V206.696H720.799V208.696ZM740.734 207.338L731.307 182.738L729.439 183.454L738.867 208.053L740.734 207.338ZM729.441 182.733L719.867 207.333L721.73 208.058L731.305 183.459L729.441 182.733ZM794.306 242.312H793.306V243.312H794.306V242.312ZM794.306 141.115V140.115H793.306V141.115H794.306ZM822.883 141.115H823.883V140.115H822.883V141.115ZM822.883 181.034H821.883V183.748L823.644 181.682L822.883 181.034ZM856.91 141.115V140.115H856.448L856.148 140.466L856.91 141.115ZM890.642 141.115L891.391 141.777L892.862 140.115H890.642V141.115ZM853.227 183.391L852.478 182.728L851.961 183.312L852.402 183.956L853.227 183.391ZM893.588 242.312V243.312H895.485L894.413 241.747L893.588 242.312ZM859.414 242.312L858.587 242.874L858.885 243.312H859.414V242.312ZM833.341 204.013L834.168 203.45L833.455 202.403L832.602 203.34L833.341 204.013ZM822.883 215.503L822.143 214.829L821.883 215.116V215.503H822.883ZM822.883 242.312V243.312H823.883V242.312H822.883ZM795.306 242.312V141.115H793.306V242.312H795.306ZM794.306 142.115H822.883V140.115H794.306V142.115ZM821.883 141.115V181.034H823.883V141.115H821.883ZM823.644 181.682L857.671 141.763L856.148 140.466L822.122 180.385L823.644 181.682ZM856.91 142.115H890.642V140.115H856.91V142.115ZM889.893 140.452L852.478 182.728L853.976 184.053L891.391 141.777L889.893 140.452ZM852.402 183.956L892.763 242.877L894.413 241.747L854.052 182.825L852.402 183.956ZM893.588 241.312H859.414V243.312H893.588V241.312ZM860.24 241.749L834.168 203.45L832.514 204.576L858.587 242.874L860.24 241.749ZM832.602 203.34L822.143 214.829L823.622 216.176L834.081 204.686L832.602 203.34ZM821.883 215.503V242.312H823.883V215.503H821.883ZM822.883 241.312H794.306V243.312H822.883V241.312ZM901.632 242.312H900.632V243.312H901.632V242.312ZM901.632 141.115V140.115H900.632V141.115H901.632ZM930.209 141.115H931.209V140.115H930.209V141.115ZM930.209 242.312V243.312H931.209V242.312H930.209ZM902.632 242.312V141.115H900.632V242.312H902.632ZM901.632 142.115H930.209V140.115H901.632V142.115ZM929.209 141.115V242.312H931.209V141.115H929.209ZM930.209 241.312H901.632V243.312H930.209V241.312ZM948.37 242.312H947.37V243.312H948.37V242.312ZM948.37 141.115V140.115H947.37V141.115H948.37ZM976.946 141.115L977.755 140.526L977.455 140.115H976.946V141.115ZM1016.42 195.322L1015.61 195.911L1017.42 198.394V195.322H1016.42ZM1016.42 141.115V140.115H1015.42V141.115H1016.42ZM1045 141.115H1046V140.115H1045V141.115ZM1045 242.312V243.312H1046V242.312H1045ZM1016.42 242.312L1015.61 242.9L1015.91 243.312H1016.42V242.312ZM976.946 188.104L977.755 187.516L975.946 185.032V188.104H976.946ZM976.946 242.312V243.312H977.946V242.312H976.946ZM949.37 242.312V141.115H947.37V242.312H949.37ZM948.37 142.115H976.946V140.115H948.37V142.115ZM976.138 141.703L1015.61 195.911L1017.23 194.733L977.755 140.526L976.138 141.703ZM1017.42 195.322V141.115H1015.42V195.322H1017.42ZM1016.42 142.115H1045V140.115H1016.42V142.115ZM1044 141.115V242.312H1046V141.115H1044ZM1045 241.312H1016.42V243.312H1045V241.312ZM1017.23 241.723L977.755 187.516L976.138 188.693L1015.61 242.9L1017.23 241.723ZM975.946 188.104V242.312H977.946V188.104H975.946ZM976.946 241.312H948.37V243.312H976.946V241.312ZM1109.13 204.16H1108.13V205.16H1109.13V204.16ZM1109.13 183.096V182.096H1108.13V183.096H1109.13ZM1156.56 183.096H1157.56V182.096H1156.56V183.096ZM1156.56 226.108L1157.3 226.786L1157.56 226.499V226.108H1156.56ZM1156.56 157.171L1157.22 157.924L1158 157.243L1157.29 156.488L1156.56 157.171ZM1135.5 175.584L1134.71 176.195L1135.36 177.036L1136.16 176.336L1135.5 175.584ZM1128.87 214.03L1129.4 214.879L1129.87 214.586V214.03H1128.87ZM1128.87 204.16H1129.87V203.16H1128.87V204.16ZM1110.13 204.16V183.096H1108.13V204.16H1110.13ZM1109.13 184.096H1156.56V182.096H1109.13V184.096ZM1155.56 183.096V226.108H1157.56V183.096H1155.56ZM1155.83 225.43C1145.57 236.56 1130.37 243.079 1114.73 243.079V245.079C1130.91 245.079 1146.64 238.342 1157.3 226.786L1155.83 225.43ZM1114.73 243.079C1084.88 243.079 1059.9 219.459 1059.9 191.64H1057.9C1057.9 220.678 1083.89 245.079 1114.73 245.079V243.079ZM1059.9 191.64C1059.9 163.823 1084.87 140.347 1114.73 140.347V138.347C1083.89 138.347 1057.9 162.597 1057.9 191.64H1059.9ZM1114.73 140.347C1130.37 140.347 1145.57 146.868 1155.83 157.853L1157.29 156.488C1146.64 145.084 1130.9 138.347 1114.73 138.347V140.347ZM1155.9 156.418L1134.84 174.831L1136.16 176.336L1157.22 157.924L1155.9 156.418ZM1136.29 174.972C1131.1 168.252 1123.15 164.272 1114.73 164.272V166.272C1122.51 166.272 1129.88 169.953 1134.71 176.195L1136.29 174.972ZM1114.73 164.272C1099.89 164.272 1087.36 176.799 1087.36 191.64H1089.36C1089.36 177.903 1100.99 166.272 1114.73 166.272V164.272ZM1087.36 191.64C1087.36 206.624 1099.88 219.154 1114.73 219.154V217.154C1101 217.154 1089.36 205.527 1089.36 191.64H1087.36ZM1114.73 219.154C1119.93 219.154 1124.98 217.622 1129.4 214.879L1128.34 213.18C1124.22 215.74 1119.54 217.154 1114.73 217.154V219.154ZM1129.87 214.03V204.16H1127.87V214.03H1129.87ZM1128.87 203.16H1109.13V205.16H1128.87V203.16Z" fill="#FF7528" mask="url(#path-3-outside-2_2_30)"/>
</svg>
