<svg width="52" height="52" viewBox="0 0 52 52" fill="none" xmlns="http://www.w3.org/2000/svg">
<path d="M11 23C11 17.3431 11 14.5147 12.7574 12.7574C14.5147 11 17.3431 11 23 11H29C34.6568 11 37.4853 11 39.2426 12.7574C41 14.5147 41 17.3431 41 23V29C41 34.6568 41 37.4853 39.2426 39.2426C37.4853 41 34.6568 41 29 41H23C17.3431 41 14.5147 41 12.7574 39.2426C11 37.4853 11 34.6568 11 29V23Z" stroke="white" stroke-width="4"/>
<rect x="20" y="20" width="12" height="12" rx="3.73333" fill="white"/>
<path d="M20 11V2" stroke="white" stroke-width="4" stroke-linecap="round"/>
<path d="M32 11V2" stroke="white" stroke-width="4" stroke-linecap="round"/>
<path d="M40.9999 20L49.9999 20" stroke="white" stroke-width="4" stroke-linecap="round"/>
<path d="M40.9999 32L49.9999 32" stroke="white" stroke-width="4" stroke-linecap="round"/>
<path d="M20 50V41" stroke="white" stroke-width="4" stroke-linecap="round"/>
<path d="M32 50V41" stroke="white" stroke-width="4" stroke-linecap="round"/>
<path d="M2.00001 20L11 20" stroke="white" stroke-width="4" stroke-linecap="round"/>
<path d="M2.00001 32L11 32" stroke="white" stroke-width="4" stroke-linecap="round"/>
</svg>
