<svg width="334" height="84" viewBox="0 0 334 84" fill="none" xmlns="http://www.w3.org/2000/svg">
<mask id="path-1-outside-1_9_80" maskUnits="userSpaceOnUse" x="4" y="27" width="326" height="37" fill="black">
<rect fill="white" x="4" y="27" width="326" height="37"/>
<path d="M23.6934 62.576C13.9494 62.576 5.74138 54.752 5.74138 45.488C5.74138 36.224 13.9494 28.448 23.6934 28.448C28.9734 28.448 33.7734 30.704 37.0854 34.256L30.2214 40.256C28.6854 38.24 26.2854 36.896 23.6934 36.896C19.1814 36.896 15.3414 40.832 15.3414 45.488C15.3414 50.192 19.1814 54.128 23.6934 54.128C26.3334 54.128 28.6854 52.784 30.2694 50.768L37.0854 56.72C33.7734 60.32 28.9734 62.576 23.6934 62.576ZM56.8809 62.576C47.1369 62.576 38.9289 54.752 38.9289 45.488C38.9289 36.224 47.1369 28.448 56.8809 28.448C66.6249 28.448 74.8329 36.224 74.8329 45.488C74.8329 54.752 66.6249 62.576 56.8809 62.576ZM56.8809 54.128C61.3929 54.128 65.2329 50.192 65.2329 45.488C65.2329 40.832 61.3929 36.896 56.8809 36.896C52.3689 36.896 48.5289 40.832 48.5289 45.488C48.5289 50.192 52.3689 54.128 56.8809 54.128ZM79.3175 62V29.024H88.6295L101.494 46.688V29.024H110.806V62H101.494L88.6295 44.336V62H79.3175ZM124.551 62V37.328H114.807V29.024H143.607V37.328H133.863V62H124.551ZM168.111 62L166.431 57.584H154.959L153.279 62H142.767L155.439 29.024H165.951L178.623 62H168.111ZM157.599 50.72H163.791L160.719 42.704L157.599 50.72ZM198.256 62.576C188.512 62.576 180.304 54.752 180.304 45.488C180.304 36.224 188.512 28.448 198.256 28.448C203.536 28.448 208.336 30.704 211.648 34.256L204.784 40.256C203.248 38.24 200.848 36.896 198.256 36.896C193.744 36.896 189.904 40.832 189.904 45.488C189.904 50.192 193.744 54.128 198.256 54.128C200.896 54.128 203.248 52.784 204.832 50.768L211.648 56.72C208.336 60.32 203.536 62.576 198.256 62.576ZM223.411 62V37.328H213.667V29.024H242.467V37.328H232.723V62H223.411ZM259.458 62V29.024H268.77L277.602 44.768L286.434 29.024H295.746V62H286.434V44.336L277.602 60.08L268.77 44.336V62H259.458ZM328.049 37.328H310.817V41.024H326.513V49.328H310.817V53.696H328.049V62H301.505V29.024H328.049V37.328Z"/>
</mask>
<path d="M37.0854 34.256L37.7435 35.0089L38.521 34.3293L37.8168 33.574L37.0854 34.256ZM30.2214 40.256L29.4259 40.862L30.0742 41.7129L30.8795 41.0089L30.2214 40.256ZM30.2694 50.768L30.9271 50.0148L30.1338 49.322L29.4831 50.1502L30.2694 50.768ZM37.0854 56.72L37.8213 57.3971L38.5161 56.6418L37.7431 55.9668L37.0854 56.72ZM23.6934 61.576C14.455 61.576 6.74137 54.1542 6.74137 45.488H4.74137C4.74137 55.3498 13.4437 63.576 23.6934 63.576V61.576ZM6.74137 45.488C6.74137 36.8253 14.4513 29.448 23.6934 29.448V27.448C13.4474 27.448 4.74137 35.6227 4.74137 45.488H6.74137ZM23.6934 29.448C28.6858 29.448 33.2241 31.5812 36.354 34.938L37.8168 33.574C34.3227 29.8268 29.2609 27.448 23.6934 27.448V29.448ZM36.4272 33.5031L29.5632 39.5031L30.8795 41.0089L37.7435 35.0089L36.4272 33.5031ZM31.0168 39.65C29.3148 37.4161 26.6338 35.896 23.6934 35.896V37.896C25.9369 37.896 28.0559 39.0639 29.4259 40.862L31.0168 39.65ZM23.6934 35.896C18.6036 35.896 14.3414 40.3055 14.3414 45.488H16.3414C16.3414 41.3585 19.7591 37.896 23.6934 37.896V35.896ZM14.3414 45.488C14.3414 50.7148 18.6001 55.128 23.6934 55.128V53.128C19.7627 53.128 16.3414 49.6692 16.3414 45.488H14.3414ZM23.6934 55.128C26.6868 55.128 29.3129 53.604 31.0557 51.3858L29.4831 50.1502C28.0579 51.964 25.9799 53.128 23.6934 53.128V55.128ZM29.6116 51.5212L36.4276 57.4732L37.7431 55.9668L30.9271 50.0148L29.6116 51.5212ZM36.3494 56.0429C33.2209 59.4435 28.6851 61.576 23.6934 61.576V63.576C29.2616 63.576 34.3258 61.1965 37.8213 57.3971L36.3494 56.0429ZM56.8809 61.576C47.6425 61.576 39.9289 54.1542 39.9289 45.488H37.9289C37.9289 55.3498 46.6312 63.576 56.8809 63.576V61.576ZM39.9289 45.488C39.9289 36.8253 47.6388 29.448 56.8809 29.448V27.448C46.6349 27.448 37.9289 35.6227 37.9289 45.488H39.9289ZM56.8809 29.448C66.1229 29.448 73.8329 36.8253 73.8329 45.488H75.8329C75.8329 35.6227 67.1268 27.448 56.8809 27.448V29.448ZM73.8329 45.488C73.8329 54.1542 66.1192 61.576 56.8809 61.576V63.576C67.1305 63.576 75.8329 55.3498 75.8329 45.488H73.8329ZM56.8809 55.128C61.9742 55.128 66.2329 50.7148 66.2329 45.488H64.2329C64.2329 49.6692 60.8116 53.128 56.8809 53.128V55.128ZM66.2329 45.488C66.2329 40.3055 61.9706 35.896 56.8809 35.896V37.896C60.8151 37.896 64.2329 41.3585 64.2329 45.488H66.2329ZM56.8809 35.896C51.7911 35.896 47.5289 40.3055 47.5289 45.488H49.5289C49.5289 41.3585 52.9466 37.896 56.8809 37.896V35.896ZM47.5289 45.488C47.5289 50.7148 51.7876 55.128 56.8809 55.128V53.128C52.9502 53.128 49.5289 49.6692 49.5289 45.488H47.5289ZM79.3175 62H78.3175V63H79.3175V62ZM79.3175 29.024V28.024H78.3175V29.024H79.3175ZM88.6295 29.024L89.4379 28.4353L89.1383 28.024H88.6295V29.024ZM101.493 46.688L100.685 47.2767L102.493 49.7598V46.688H101.493ZM101.493 29.024V28.024H100.493V29.024H101.493ZM110.806 29.024H111.806V28.024H110.806V29.024ZM110.806 62V63H111.806V62H110.806ZM101.493 62L100.685 62.5887L100.985 63H101.493V62ZM88.6295 44.336L89.4379 43.7473L87.6295 41.2642V44.336H88.6295ZM88.6295 62V63H89.6295V62H88.6295ZM80.3175 62V29.024H78.3175V62H80.3175ZM79.3175 30.024H88.6295V28.024H79.3175V30.024ZM87.8211 29.6127L100.685 47.2767L102.302 46.0993L89.4379 28.4353L87.8211 29.6127ZM102.493 46.688V29.024H100.493V46.688H102.493ZM101.493 30.024H110.806V28.024H101.493V30.024ZM109.806 29.024V62H111.806V29.024H109.806ZM110.806 61H101.493V63H110.806V61ZM102.302 61.4113L89.4379 43.7473L87.8211 44.9247L100.685 62.5887L102.302 61.4113ZM87.6295 44.336V62H89.6295V44.336H87.6295ZM88.6295 61H79.3175V63H88.6295V61ZM124.551 62H123.551V63H124.551V62ZM124.551 37.328H125.551V36.328H124.551V37.328ZM114.807 37.328H113.807V38.328H114.807V37.328ZM114.807 29.024V28.024H113.807V29.024H114.807ZM143.607 29.024H144.607V28.024H143.607V29.024ZM143.607 37.328V38.328H144.607V37.328H143.607ZM133.863 37.328V36.328H132.863V37.328H133.863ZM133.863 62V63H134.863V62H133.863ZM125.551 62V37.328H123.551V62H125.551ZM124.551 36.328H114.807V38.328H124.551V36.328ZM115.807 37.328V29.024H113.807V37.328H115.807ZM114.807 30.024H143.607V28.024H114.807V30.024ZM142.607 29.024V37.328H144.607V29.024H142.607ZM143.607 36.328H133.863V38.328H143.607V36.328ZM132.863 37.328V62H134.863V37.328H132.863ZM133.863 61H124.551V63H133.863V61ZM168.111 62L167.176 62.3556L167.421 63H168.111V62ZM166.431 57.584L167.365 57.2284L167.12 56.584H166.431V57.584ZM154.959 57.584V56.584H154.269L154.024 57.2284L154.959 57.584ZM153.279 62V63H153.968L154.213 62.3556L153.279 62ZM142.767 62L141.833 61.6413L141.311 63H142.767V62ZM155.439 29.024V28.024H154.752L154.505 28.6653L155.439 29.024ZM165.951 29.024L166.884 28.6653L166.638 28.024H165.951V29.024ZM178.623 62V63H180.078L179.556 61.6413L178.623 62ZM157.599 50.72L156.667 50.3573L156.136 51.72H157.599V50.72ZM163.791 50.72V51.72H165.245L164.725 50.3621L163.791 50.72ZM160.719 42.704L161.653 42.3461L160.726 39.9284L159.787 42.3413L160.719 42.704ZM169.045 61.6444L167.365 57.2284L165.496 57.9396L167.176 62.3556L169.045 61.6444ZM166.431 56.584H154.959V58.584H166.431V56.584ZM154.024 57.2284L152.344 61.6444L154.213 62.3556L155.893 57.9396L154.024 57.2284ZM153.279 61H142.767V63H153.279V61ZM143.7 62.3587L156.372 29.3827L154.505 28.6653L141.833 61.6413L143.7 62.3587ZM155.439 30.024H165.951V28.024H155.439V30.024ZM165.017 29.3827L177.689 62.3587L179.556 61.6413L166.884 28.6653L165.017 29.3827ZM178.623 61H168.111V63H178.623V61ZM157.599 51.72H163.791V49.72H157.599V51.72ZM164.725 50.3621L161.653 42.3461L159.785 43.0619L162.857 51.0779L164.725 50.3621ZM159.787 42.3413L156.667 50.3573L158.531 51.0827L161.651 43.0667L159.787 42.3413ZM211.648 34.256L212.306 35.0089L213.083 34.3293L212.379 33.574L211.648 34.256ZM204.784 40.256L203.988 40.862L204.637 41.7129L205.442 41.0089L204.784 40.256ZM204.832 50.768L205.49 50.0148L204.696 49.322L204.046 50.1502L204.832 50.768ZM211.648 56.72L212.384 57.3971L213.079 56.6418L212.306 55.9668L211.648 56.72ZM198.256 61.576C189.018 61.576 181.304 54.1542 181.304 45.488H179.304C179.304 55.3498 188.006 63.576 198.256 63.576V61.576ZM181.304 45.488C181.304 36.8253 189.014 29.448 198.256 29.448V27.448C188.01 27.448 179.304 35.6227 179.304 45.488H181.304ZM198.256 29.448C203.248 29.448 207.787 31.5812 210.916 34.938L212.379 33.574C208.885 29.8268 203.823 27.448 198.256 27.448V29.448ZM210.99 33.5031L204.126 39.5031L205.442 41.0089L212.306 35.0089L210.99 33.5031ZM205.579 39.65C203.877 37.4161 201.196 35.896 198.256 35.896V37.896C200.499 37.896 202.618 39.0639 203.988 40.862L205.579 39.65ZM198.256 35.896C193.166 35.896 188.904 40.3055 188.904 45.488H190.904C190.904 41.3585 194.322 37.896 198.256 37.896V35.896ZM188.904 45.488C188.904 50.7148 193.163 55.128 198.256 55.128V53.128C194.325 53.128 190.904 49.6692 190.904 45.488H188.904ZM198.256 55.128C201.249 55.128 203.875 53.604 205.618 51.3858L204.046 50.1502C202.62 51.964 200.542 53.128 198.256 53.128V55.128ZM204.174 51.5212L210.99 57.4732L212.306 55.9668L205.49 50.0148L204.174 51.5212ZM210.912 56.0429C207.783 59.4435 203.248 61.576 198.256 61.576V63.576C203.824 63.576 208.888 61.1965 212.384 57.3971L210.912 56.0429ZM223.411 62H222.411V63H223.411V62ZM223.411 37.328H224.411V36.328H223.411V37.328ZM213.667 37.328H212.667V38.328H213.667V37.328ZM213.667 29.024V28.024H212.667V29.024H213.667ZM242.467 29.024H243.467V28.024H242.467V29.024ZM242.467 37.328V38.328H243.467V37.328H242.467ZM232.723 37.328V36.328H231.723V37.328H232.723ZM232.723 62V63H233.723V62H232.723ZM224.411 62V37.328H222.411V62H224.411ZM223.411 36.328H213.667V38.328H223.411V36.328ZM214.667 37.328V29.024H212.667V37.328H214.667ZM213.667 30.024H242.467V28.024H213.667V30.024ZM241.467 29.024V37.328H243.467V29.024H241.467ZM242.467 36.328H232.723V38.328H242.467V36.328ZM231.723 37.328V62H233.723V37.328H231.723ZM232.723 61H223.411V63H232.723V61ZM259.458 62H258.458V63H259.458V62ZM259.458 29.024V28.024H258.458V29.024H259.458ZM268.77 29.024L269.642 28.5347L269.356 28.024H268.77V29.024ZM277.602 44.768L276.73 45.2572L277.602 46.8119L278.474 45.2572L277.602 44.768ZM286.434 29.024V28.024H285.849L285.562 28.5347L286.434 29.024ZM295.746 29.024H296.746V28.024H295.746V29.024ZM295.746 62V63H296.746V62H295.746ZM286.434 62H285.434V63H286.434V62ZM286.434 44.336H287.434V40.5094L285.562 43.8467L286.434 44.336ZM277.602 60.08L276.73 60.5693L277.602 62.1239L278.474 60.5693L277.602 60.08ZM268.77 44.336L269.642 43.8467L267.77 40.5094V44.336H268.77ZM268.77 62V63H269.77V62H268.77ZM260.458 62V29.024H258.458V62H260.458ZM259.458 30.024H268.77V28.024H259.458V30.024ZM267.898 29.5132L276.73 45.2572L278.474 44.2787L269.642 28.5347L267.898 29.5132ZM278.474 45.2572L287.306 29.5132L285.562 28.5347L276.73 44.2787L278.474 45.2572ZM286.434 30.024H295.746V28.024H286.434V30.024ZM294.746 29.024V62H296.746V29.024H294.746ZM295.746 61H286.434V63H295.746V61ZM287.434 62V44.336H285.434V62H287.434ZM285.562 43.8467L276.73 59.5907L278.474 60.5693L287.306 44.8252L285.562 43.8467ZM278.474 59.5907L269.642 43.8467L267.898 44.8252L276.73 60.5693L278.474 59.5907ZM267.77 44.336V62H269.77V44.336H267.77ZM268.77 61H259.458V63H268.77V61ZM328.049 37.328V38.328H329.049V37.328H328.049ZM310.817 37.328V36.328H309.817V37.328H310.817ZM310.817 41.024H309.817V42.024H310.817V41.024ZM326.513 41.024H327.513V40.024H326.513V41.024ZM326.513 49.328V50.328H327.513V49.328H326.513ZM310.817 49.328V48.328H309.817V49.328H310.817ZM310.817 53.696H309.817V54.696H310.817V53.696ZM328.049 53.696H329.049V52.696H328.049V53.696ZM328.049 62V63H329.049V62H328.049ZM301.505 62H300.505V63H301.505V62ZM301.505 29.024V28.024H300.505V29.024H301.505ZM328.049 29.024H329.049V28.024H328.049V29.024ZM328.049 36.328H310.817V38.328H328.049V36.328ZM309.817 37.328V41.024H311.817V37.328H309.817ZM310.817 42.024H326.513V40.024H310.817V42.024ZM325.513 41.024V49.328H327.513V41.024H325.513ZM326.513 48.328H310.817V50.328H326.513V48.328ZM309.817 49.328V53.696H311.817V49.328H309.817ZM310.817 54.696H328.049V52.696H310.817V54.696ZM327.049 53.696V62H329.049V53.696H327.049ZM328.049 61H301.505V63H328.049V61ZM302.505 62V29.024H300.505V62H302.505ZM301.505 30.024H328.049V28.024H301.505V30.024ZM327.049 29.024V37.328H329.049V29.024H327.049Z" fill="#FF7528" mask="url(#path-1-outside-1_9_80)"/>
<path d="M23.6934 50.576C13.9494 50.576 5.74138 42.752 5.74138 33.488C5.74138 24.224 13.9494 16.448 23.6934 16.448C28.9734 16.448 33.7734 18.704 37.0854 22.256L30.2214 28.256C28.6854 26.24 26.2854 24.896 23.6934 24.896C19.1814 24.896 15.3414 28.832 15.3414 33.488C15.3414 38.192 19.1814 42.128 23.6934 42.128C26.3334 42.128 28.6854 40.784 30.2694 38.768L37.0854 44.72C33.7734 48.32 28.9734 50.576 23.6934 50.576ZM56.8809 50.576C47.1369 50.576 38.9289 42.752 38.9289 33.488C38.9289 24.224 47.1369 16.448 56.8809 16.448C66.6249 16.448 74.8329 24.224 74.8329 33.488C74.8329 42.752 66.6249 50.576 56.8809 50.576ZM56.8809 42.128C61.3929 42.128 65.2329 38.192 65.2329 33.488C65.2329 28.832 61.3929 24.896 56.8809 24.896C52.3689 24.896 48.5289 28.832 48.5289 33.488C48.5289 38.192 52.3689 42.128 56.8809 42.128ZM79.3175 50V17.024H88.6295L101.494 34.688V17.024H110.806V50H101.494L88.6295 32.336V50H79.3175ZM124.551 50V25.328H114.807V17.024H143.607V25.328H133.863V50H124.551ZM168.111 50L166.431 45.584H154.959L153.279 50H142.767L155.439 17.024H165.951L178.623 50H168.111ZM157.599 38.72H163.791L160.719 30.704L157.599 38.72ZM198.256 50.576C188.512 50.576 180.304 42.752 180.304 33.488C180.304 24.224 188.512 16.448 198.256 16.448C203.536 16.448 208.336 18.704 211.648 22.256L204.784 28.256C203.248 26.24 200.848 24.896 198.256 24.896C193.744 24.896 189.904 28.832 189.904 33.488C189.904 38.192 193.744 42.128 198.256 42.128C200.896 42.128 203.248 40.784 204.832 38.768L211.648 44.72C208.336 48.32 203.536 50.576 198.256 50.576ZM223.411 50V25.328H213.667V17.024H242.467V25.328H232.723V50H223.411ZM259.458 50V17.024H268.77L277.602 32.768L286.434 17.024H295.746V50H286.434V32.336L277.602 48.08L268.77 32.336V50H259.458ZM328.049 25.328H310.817V29.024H326.513V37.328H310.817V41.696H328.049V50H301.505V17.024H328.049V25.328Z" fill="white"/>
</svg>
