<svg width="536" height="83" viewBox="0 0 536 83" fill="none" xmlns="http://www.w3.org/2000/svg">
<mask id="path-1-outside-1_7_401" maskUnits="userSpaceOnUse" x="2" y="26" width="534" height="37" fill="black">
<rect fill="white" x="2" y="26" width="534" height="37"/>
<path d="M29.8615 36.328H12.6295V40.984H28.3255V49.288H12.6295V61H3.3175V28.024H29.8615V36.328ZM61.1271 36.328H43.8951V40.024H59.5911V48.328H43.8951V52.696H61.1271V61H34.5831V28.024H61.1271V36.328ZM88.3608 61L86.6808 56.584H75.2088L73.5288 61H63.0168L75.6888 28.024H86.2008L98.8728 61H88.3608ZM77.8488 49.72H84.0408L80.9688 41.704L77.8488 49.72ZM106.489 61V36.328H96.7446V28.024H125.545V36.328H115.801V61H106.489ZM144.866 61.576C135.65 61.576 129.17 55.288 129.17 46.36V28.024H138.482V45.88C138.482 50.104 141.122 53.128 144.866 53.128C148.61 53.128 151.25 50.104 151.25 45.88V28.024H160.562V46.36C160.562 55.288 154.082 61.576 144.866 61.576ZM195.734 61H185.126L178.166 51.064H175.286V61H165.974V28.024H181.766C189.158 28.024 194.39 32.776 194.39 39.544C194.39 44.248 191.894 47.944 187.862 49.816L195.734 61ZM175.286 36.472V42.616H180.998C183.206 42.616 184.79 41.32 184.79 39.544C184.79 37.768 183.206 36.472 180.998 36.472H175.286ZM225.987 36.328H208.755V40.024H224.451V48.328H208.755V52.696H225.987V61H199.443V28.024H225.987V36.328ZM230.708 61V28.024H242.996C254.516 28.024 262.676 34.84 262.676 44.488C262.676 54.136 254.516 61 242.996 61H230.708ZM240.02 52.552H244.532C249.524 52.552 253.076 49.192 253.076 44.488C253.076 39.784 249.524 36.472 244.532 36.472H240.02V52.552ZM280.255 61V28.024H296.047C303.439 28.024 308.671 32.776 308.671 39.544C308.671 46.312 303.439 51.064 296.047 51.064H289.567V61H280.255ZM289.567 42.616H295.279C297.487 42.616 299.071 41.32 299.071 39.544C299.071 37.768 297.487 36.472 295.279 36.472H289.567V42.616ZM342.171 61H331.563L324.603 51.064H321.723V61H312.411V28.024H328.203C335.595 28.024 340.827 32.776 340.827 39.544C340.827 44.248 338.331 47.944 334.299 49.816L342.171 61ZM321.723 36.472V42.616H327.435C329.643 42.616 331.227 41.32 331.227 39.544C331.227 37.768 329.643 36.472 327.435 36.472H321.723ZM362.584 61.576C352.84 61.576 344.632 53.752 344.632 44.488C344.632 35.224 352.84 27.448 362.584 27.448C372.328 27.448 380.536 35.224 380.536 44.488C380.536 53.752 372.328 61.576 362.584 61.576ZM362.584 53.128C367.096 53.128 370.936 49.192 370.936 44.488C370.936 39.832 367.096 35.896 362.584 35.896C358.072 35.896 354.232 39.832 354.232 44.488C354.232 49.192 358.072 53.128 362.584 53.128ZM393.949 61.576C389.485 61.576 384.637 59.32 382.285 56.104L388.285 50.248C389.197 51.928 391.021 53.128 392.701 53.128C394.957 53.128 396.589 51.544 396.589 49.288V28.024H405.901V50.248C405.901 56.872 400.957 61.576 393.949 61.576ZM437.862 36.328H420.63V40.024H436.326V48.328H420.63V52.696H437.862V61H411.318V28.024H437.862V36.328ZM459.287 61.576C449.543 61.576 441.335 53.752 441.335 44.488C441.335 35.224 449.543 27.448 459.287 27.448C464.567 27.448 469.367 29.704 472.679 33.256L465.815 39.256C464.279 37.24 461.879 35.896 459.287 35.896C454.775 35.896 450.935 39.832 450.935 44.488C450.935 49.192 454.775 53.128 459.287 53.128C461.927 53.128 464.279 51.784 465.863 49.768L472.679 55.72C469.367 59.32 464.567 61.576 459.287 61.576ZM484.442 61V36.328H474.698V28.024H503.498V36.328H493.754V61H484.442ZM520.659 61.576C514.707 61.576 509.091 59.704 504.915 56.008L510.099 49.816C513.459 52.456 517.107 53.848 520.995 53.848C523.539 53.848 524.883 52.984 524.883 51.544C524.883 49.96 523.731 49.72 519.171 48.664C512.019 47.032 506.499 45.16 506.499 38.296C506.499 31.72 511.683 27.448 519.507 27.448C525.219 27.448 529.683 28.984 533.331 31.912L528.675 38.488C525.603 36.28 522.243 35.176 519.267 35.176C517.011 35.176 515.907 36.088 515.907 37.336C515.907 39.016 517.059 39.544 521.763 40.552C529.443 42.184 534.243 44.248 534.243 50.536C534.243 57.496 528.915 61.576 520.659 61.576Z"/>
</mask>
<path d="M29.8615 36.328V37.328H30.8615V36.328H29.8615ZM12.6295 36.328V35.328H11.6295V36.328H12.6295ZM12.6295 40.984H11.6295V41.984H12.6295V40.984ZM28.3255 40.984H29.3255V39.984H28.3255V40.984ZM28.3255 49.288V50.288H29.3255V49.288H28.3255ZM12.6295 49.288V48.288H11.6295V49.288H12.6295ZM12.6295 61V62H13.6295V61H12.6295ZM3.3175 61H2.3175V62H3.3175V61ZM3.3175 28.024V27.024H2.3175V28.024H3.3175ZM29.8615 28.024H30.8615V27.024H29.8615V28.024ZM29.8615 35.328H12.6295V37.328H29.8615V35.328ZM11.6295 36.328V40.984H13.6295V36.328H11.6295ZM12.6295 41.984H28.3255V39.984H12.6295V41.984ZM27.3255 40.984V49.288H29.3255V40.984H27.3255ZM28.3255 48.288H12.6295V50.288H28.3255V48.288ZM11.6295 49.288V61H13.6295V49.288H11.6295ZM12.6295 60H3.3175V62H12.6295V60ZM4.3175 61V28.024H2.3175V61H4.3175ZM3.3175 29.024H29.8615V27.024H3.3175V29.024ZM28.8615 28.024V36.328H30.8615V28.024H28.8615ZM61.1271 36.328V37.328H62.1271V36.328H61.1271ZM43.8951 36.328V35.328H42.8951V36.328H43.8951ZM43.8951 40.024H42.8951V41.024H43.8951V40.024ZM59.5911 40.024H60.5911V39.024H59.5911V40.024ZM59.5911 48.328V49.328H60.5911V48.328H59.5911ZM43.8951 48.328V47.328H42.8951V48.328H43.8951ZM43.8951 52.696H42.8951V53.696H43.8951V52.696ZM61.1271 52.696H62.1271V51.696H61.1271V52.696ZM61.1271 61V62H62.1271V61H61.1271ZM34.5831 61H33.5831V62H34.5831V61ZM34.5831 28.024V27.024H33.5831V28.024H34.5831ZM61.1271 28.024H62.1271V27.024H61.1271V28.024ZM61.1271 35.328H43.8951V37.328H61.1271V35.328ZM42.8951 36.328V40.024H44.8951V36.328H42.8951ZM43.8951 41.024H59.5911V39.024H43.8951V41.024ZM58.5911 40.024V48.328H60.5911V40.024H58.5911ZM59.5911 47.328H43.8951V49.328H59.5911V47.328ZM42.8951 48.328V52.696H44.8951V48.328H42.8951ZM43.8951 53.696H61.1271V51.696H43.8951V53.696ZM60.1271 52.696V61H62.1271V52.696H60.1271ZM61.1271 60H34.5831V62H61.1271V60ZM35.5831 61V28.024H33.5831V61H35.5831ZM34.5831 29.024H61.1271V27.024H34.5831V29.024ZM60.1271 28.024V36.328H62.1271V28.024H60.1271ZM88.3607 61L87.4261 61.3556L87.6713 62H88.3607V61ZM86.6807 56.584L87.6154 56.2284L87.3702 55.584H86.6807V56.584ZM75.2087 56.584V55.584H74.5193L74.2741 56.2284L75.2087 56.584ZM73.5287 61V62H74.2182L74.4634 61.3556L73.5287 61ZM63.0168 61L62.0833 60.6413L61.5612 62H63.0168V61ZM75.6888 28.024V27.024H75.0017L74.7553 27.6653L75.6888 28.024ZM86.2008 28.024L87.1342 27.6653L86.8878 27.024H86.2008V28.024ZM98.8727 61V62H100.328L99.8062 60.6413L98.8727 61ZM77.8487 49.72L76.9168 49.3573L76.3865 50.72H77.8487V49.72ZM84.0407 49.72V50.72H85.4949L84.9745 49.3621L84.0407 49.72ZM80.9688 41.704L81.9025 41.3461L80.976 38.9284L80.0368 41.3413L80.9688 41.704ZM89.2954 60.6444L87.6154 56.2284L85.7461 56.9396L87.4261 61.3556L89.2954 60.6444ZM86.6807 55.584H75.2087V57.584H86.6807V55.584ZM74.2741 56.2284L72.5941 60.6444L74.4634 61.3556L76.1434 56.9396L74.2741 56.2284ZM73.5287 60H63.0168V62H73.5287V60ZM63.9502 61.3587L76.6222 28.3827L74.7553 27.6653L62.0833 60.6413L63.9502 61.3587ZM75.6888 29.024H86.2008V27.024H75.6888V29.024ZM85.2673 28.3827L97.9393 61.3587L99.8062 60.6413L87.1342 27.6653L85.2673 28.3827ZM98.8727 60H88.3607V62H98.8727V60ZM77.8487 50.72H84.0407V48.72H77.8487V50.72ZM84.9745 49.3621L81.9025 41.3461L80.035 42.0619L83.107 50.0779L84.9745 49.3621ZM80.0368 41.3413L76.9168 49.3573L78.7806 50.0827L81.9007 42.0667L80.0368 41.3413ZM106.489 61H105.489V62H106.489V61ZM106.489 36.328H107.489V35.328H106.489V36.328ZM96.7446 36.328H95.7446V37.328H96.7446V36.328ZM96.7446 28.024V27.024H95.7446V28.024H96.7446ZM125.545 28.024H126.545V27.024H125.545V28.024ZM125.545 36.328V37.328H126.545V36.328H125.545ZM115.801 36.328V35.328H114.801V36.328H115.801ZM115.801 61V62H116.801V61H115.801ZM107.489 61V36.328H105.489V61H107.489ZM106.489 35.328H96.7446V37.328H106.489V35.328ZM97.7446 36.328V28.024H95.7446V36.328H97.7446ZM96.7446 29.024H125.545V27.024H96.7446V29.024ZM124.545 28.024V36.328H126.545V28.024H124.545ZM125.545 35.328H115.801V37.328H125.545V35.328ZM114.801 36.328V61H116.801V36.328H114.801ZM115.801 60H106.489V62H115.801V60ZM129.17 28.024V27.024H128.17V28.024H129.17ZM138.482 28.024H139.482V27.024H138.482V28.024ZM151.25 28.024V27.024H150.25V28.024H151.25ZM160.562 28.024H161.562V27.024H160.562V28.024ZM144.866 60.576C140.49 60.576 136.824 59.0863 134.258 56.5981C131.694 54.1119 130.17 50.5734 130.17 46.36H128.17C128.17 51.0746 129.886 55.1441 132.866 58.0339C135.844 60.9216 140.027 62.576 144.866 62.576V60.576ZM130.17 46.36V28.024H128.17V46.36H130.17ZM129.17 29.024H138.482V27.024H129.17V29.024ZM137.482 28.024V45.88H139.482V28.024H137.482ZM137.482 45.88C137.482 50.5307 140.452 54.128 144.866 54.128V52.128C141.792 52.128 139.482 49.6773 139.482 45.88H137.482ZM144.866 54.128C149.28 54.128 152.25 50.5307 152.25 45.88H150.25C150.25 49.6773 147.94 52.128 144.866 52.128V54.128ZM152.25 45.88V28.024H150.25V45.88H152.25ZM151.25 29.024H160.562V27.024H151.25V29.024ZM159.562 28.024V46.36H161.562V28.024H159.562ZM159.562 46.36C159.562 50.5734 158.038 54.1119 155.474 56.5981C152.908 59.0863 149.243 60.576 144.866 60.576V62.576C149.706 62.576 153.888 60.9216 156.866 58.0339C159.846 55.1441 161.562 51.0746 161.562 46.36H159.562ZM195.734 61V62H197.66L196.551 60.4244L195.734 61ZM185.126 61L184.307 61.5737L184.605 62H185.126V61ZM178.166 51.064L178.985 50.4903L178.686 50.064H178.166V51.064ZM175.286 51.064V50.064H174.286V51.064H175.286ZM175.286 61V62H176.286V61H175.286ZM165.974 61H164.974V62H165.974V61ZM165.974 28.024V27.024H164.974V28.024H165.974ZM187.862 49.816L187.441 48.909L186.355 49.413L187.044 50.3916L187.862 49.816ZM175.286 36.472V35.472H174.286V36.472H175.286ZM175.286 42.616H174.286V43.616H175.286V42.616ZM195.734 60H185.126V62H195.734V60ZM185.945 60.4263L178.985 50.4903L177.347 51.6377L184.307 61.5737L185.945 60.4263ZM178.166 50.064H175.286V52.064H178.166V50.064ZM174.286 51.064V61H176.286V51.064H174.286ZM175.286 60H165.974V62H175.286V60ZM166.974 61V28.024H164.974V61H166.974ZM165.974 29.024H181.766V27.024H165.974V29.024ZM181.766 29.024C185.247 29.024 188.153 30.1411 190.176 31.9851C192.193 33.8231 193.39 36.4315 193.39 39.544H195.39C195.39 35.8885 193.97 32.7369 191.523 30.5069C189.083 28.2829 185.676 27.024 181.766 27.024V29.024ZM193.39 39.544C193.39 43.8501 191.128 47.1972 187.441 48.909L188.283 50.723C192.66 48.6908 195.39 44.6459 195.39 39.544H193.39ZM187.044 50.3916L194.916 61.5756L196.551 60.4244L188.68 49.2404L187.044 50.3916ZM174.286 36.472V42.616H176.286V36.472H174.286ZM175.286 43.616H180.998V41.616H175.286V43.616ZM180.998 43.616C183.554 43.616 185.79 42.0563 185.79 39.544H183.79C183.79 40.5837 182.857 41.616 180.998 41.616V43.616ZM185.79 39.544C185.79 37.0317 183.554 35.472 180.998 35.472V37.472C182.857 37.472 183.79 38.5043 183.79 39.544H185.79ZM180.998 35.472H175.286V37.472H180.998V35.472ZM225.986 36.328V37.328H226.986V36.328H225.986ZM208.755 36.328V35.328H207.755V36.328H208.755ZM208.755 40.024H207.755V41.024H208.755V40.024ZM224.451 40.024H225.451V39.024H224.451V40.024ZM224.451 48.328V49.328H225.451V48.328H224.451ZM208.755 48.328V47.328H207.755V48.328H208.755ZM208.755 52.696H207.755V53.696H208.755V52.696ZM225.986 52.696H226.986V51.696H225.986V52.696ZM225.986 61V62H226.986V61H225.986ZM199.443 61H198.443V62H199.443V61ZM199.443 28.024V27.024H198.443V28.024H199.443ZM225.986 28.024H226.986V27.024H225.986V28.024ZM225.986 35.328H208.755V37.328H225.986V35.328ZM207.755 36.328V40.024H209.755V36.328H207.755ZM208.755 41.024H224.451V39.024H208.755V41.024ZM223.451 40.024V48.328H225.451V40.024H223.451ZM224.451 47.328H208.755V49.328H224.451V47.328ZM207.755 48.328V52.696H209.755V48.328H207.755ZM208.755 53.696H225.986V51.696H208.755V53.696ZM224.986 52.696V61H226.986V52.696H224.986ZM225.986 60H199.443V62H225.986V60ZM200.443 61V28.024H198.443V61H200.443ZM199.443 29.024H225.986V27.024H199.443V29.024ZM224.986 28.024V36.328H226.986V28.024H224.986ZM230.708 61H229.708V62H230.708V61ZM230.708 28.024V27.024H229.708V28.024H230.708ZM240.02 52.552H239.02V53.552H240.02V52.552ZM240.02 36.472V35.472H239.02V36.472H240.02ZM231.708 61V28.024H229.708V61H231.708ZM230.708 29.024H242.996V27.024H230.708V29.024ZM242.996 29.024C254.139 29.024 261.676 35.5524 261.676 44.488H263.676C263.676 34.1276 254.893 27.024 242.996 27.024V29.024ZM261.676 44.488C261.676 53.4271 254.135 60 242.996 60V62C254.898 62 263.676 54.8449 263.676 44.488H261.676ZM242.996 60H230.708V62H242.996V60ZM240.02 53.552H244.532V51.552H240.02V53.552ZM244.532 53.552C250.022 53.552 254.076 49.7974 254.076 44.488H252.076C252.076 48.5866 249.026 51.552 244.532 51.552V53.552ZM254.076 44.488C254.076 41.8727 253.083 39.6001 251.36 37.9861C249.641 36.3765 247.251 35.472 244.532 35.472V37.472C246.805 37.472 248.687 38.2235 249.993 39.4459C251.293 40.6639 252.076 42.3993 252.076 44.488H254.076ZM244.532 35.472H240.02V37.472H244.532V35.472ZM239.02 36.472V52.552H241.02V36.472H239.02ZM280.255 61H279.255V62H280.255V61ZM280.255 28.024V27.024H279.255V28.024H280.255ZM289.567 51.064V50.064H288.567V51.064H289.567ZM289.567 61V62H290.567V61H289.567ZM289.567 42.616H288.567V43.616H289.567V42.616ZM289.567 36.472V35.472H288.567V36.472H289.567ZM281.255 61V28.024H279.255V61H281.255ZM280.255 29.024H296.047V27.024H280.255V29.024ZM296.047 29.024C299.529 29.024 302.434 30.1411 304.457 31.9851C306.474 33.8231 307.671 36.4315 307.671 39.544H309.671C309.671 35.8885 308.252 32.7369 305.805 30.5069C303.364 28.2829 299.957 27.024 296.047 27.024V29.024ZM307.671 39.544C307.671 42.6565 306.474 45.2649 304.457 47.1029C302.434 48.9469 299.529 50.064 296.047 50.064V52.064C299.957 52.064 303.364 50.8051 305.805 48.5811C308.252 46.3511 309.671 43.1995 309.671 39.544H307.671ZM296.047 50.064H289.567V52.064H296.047V50.064ZM288.567 51.064V61H290.567V51.064H288.567ZM289.567 60H280.255V62H289.567V60ZM289.567 43.616H295.279V41.616H289.567V43.616ZM295.279 43.616C297.835 43.616 300.071 42.0563 300.071 39.544H298.071C298.071 40.5837 297.139 41.616 295.279 41.616V43.616ZM300.071 39.544C300.071 37.0317 297.835 35.472 295.279 35.472V37.472C297.139 37.472 298.071 38.5043 298.071 39.544H300.071ZM295.279 35.472H289.567V37.472H295.279V35.472ZM288.567 36.472V42.616H290.567V36.472H288.567ZM342.171 61V62H344.098L342.989 60.4244L342.171 61ZM331.563 61L330.744 61.5737L331.043 62H331.563V61ZM324.603 51.064L325.422 50.4903L325.124 50.064H324.603V51.064ZM321.723 51.064V50.064H320.723V51.064H321.723ZM321.723 61V62H322.723V61H321.723ZM312.411 61H311.411V62H312.411V61ZM312.411 28.024V27.024H311.411V28.024H312.411ZM334.299 49.816L333.878 48.909L332.793 49.413L333.482 50.3916L334.299 49.816ZM321.723 36.472V35.472H320.723V36.472H321.723ZM321.723 42.616H320.723V43.616H321.723V42.616ZM342.171 60H331.563V62H342.171V60ZM332.382 60.4263L325.422 50.4903L323.784 51.6377L330.744 61.5737L332.382 60.4263ZM324.603 50.064H321.723V52.064H324.603V50.064ZM320.723 51.064V61H322.723V51.064H320.723ZM321.723 60H312.411V62H321.723V60ZM313.411 61V28.024H311.411V61H313.411ZM312.411 29.024H328.203V27.024H312.411V29.024ZM328.203 29.024C331.685 29.024 334.59 30.1411 336.614 31.9851C338.631 33.8231 339.827 36.4315 339.827 39.544H341.827C341.827 35.8885 340.408 32.7369 337.961 30.5069C335.52 28.2829 332.114 27.024 328.203 27.024V29.024ZM339.827 39.544C339.827 43.8501 337.565 47.1972 333.878 48.909L334.72 50.723C339.097 48.6908 341.827 44.6459 341.827 39.544H339.827ZM333.482 50.3916L341.354 61.5756L342.989 60.4244L335.117 49.2404L333.482 50.3916ZM320.723 36.472V42.616H322.723V36.472H320.723ZM321.723 43.616H327.435V41.616H321.723V43.616ZM327.435 43.616C329.991 43.616 332.227 42.0563 332.227 39.544H330.227C330.227 40.5837 329.295 41.616 327.435 41.616V43.616ZM332.227 39.544C332.227 37.0317 329.991 35.472 327.435 35.472V37.472C329.295 37.472 330.227 38.5043 330.227 39.544H332.227ZM327.435 35.472H321.723V37.472H327.435V35.472ZM362.584 60.576C353.346 60.576 345.632 53.1542 345.632 44.488H343.632C343.632 54.3498 352.334 62.576 362.584 62.576V60.576ZM345.632 44.488C345.632 35.8253 353.342 28.448 362.584 28.448V26.448C352.338 26.448 343.632 34.6227 343.632 44.488H345.632ZM362.584 28.448C371.826 28.448 379.536 35.8253 379.536 44.488H381.536C381.536 34.6227 372.83 26.448 362.584 26.448V28.448ZM379.536 44.488C379.536 53.1542 371.822 60.576 362.584 60.576V62.576C372.834 62.576 381.536 54.3498 381.536 44.488H379.536ZM362.584 54.128C367.677 54.128 371.936 49.7148 371.936 44.488H369.936C369.936 48.6692 366.515 52.128 362.584 52.128V54.128ZM371.936 44.488C371.936 39.3055 367.674 34.896 362.584 34.896V36.896C366.518 36.896 369.936 40.3585 369.936 44.488H371.936ZM362.584 34.896C357.494 34.896 353.232 39.3055 353.232 44.488H355.232C355.232 40.3585 358.65 36.896 362.584 36.896V34.896ZM353.232 44.488C353.232 49.7148 357.491 54.128 362.584 54.128V52.128C358.653 52.128 355.232 48.6692 355.232 44.488H353.232ZM382.285 56.104L381.586 55.3884L380.965 55.9942L381.477 56.6943L382.285 56.104ZM388.285 50.248L389.163 49.7709L388.533 48.6087L387.586 49.5324L388.285 50.248ZM396.589 28.024V27.024H395.589V28.024H396.589ZM405.901 28.024H406.901V27.024H405.901V28.024ZM393.949 60.576C389.754 60.576 385.228 58.4349 383.092 55.5137L381.477 56.6943C384.045 60.2051 389.215 62.576 393.949 62.576V60.576ZM382.983 56.8196L388.983 50.9636L387.586 49.5324L381.586 55.3884L382.983 56.8196ZM387.406 50.7251C388.46 52.6676 390.591 54.128 392.701 54.128V52.128C391.451 52.128 389.933 51.1884 389.163 49.7709L387.406 50.7251ZM392.701 54.128C395.492 54.128 397.589 52.1128 397.589 49.288H395.589C395.589 50.9752 394.421 52.128 392.701 52.128V54.128ZM397.589 49.288V28.024H395.589V49.288H397.589ZM396.589 29.024H405.901V27.024H396.589V29.024ZM404.901 28.024V50.248H406.901V28.024H404.901ZM404.901 50.248C404.901 53.3008 403.767 55.8656 401.864 57.6706C399.959 59.4789 397.226 60.576 393.949 60.576V62.576C397.679 62.576 400.923 61.3211 403.241 59.1214C405.563 56.9184 406.901 53.8192 406.901 50.248H404.901ZM437.862 36.328V37.328H438.862V36.328H437.862ZM420.629 36.328V35.328H419.629V36.328H420.629ZM420.629 40.024H419.629V41.024H420.629V40.024ZM436.326 40.024H437.326V39.024H436.326V40.024ZM436.326 48.328V49.328H437.326V48.328H436.326ZM420.629 48.328V47.328H419.629V48.328H420.629ZM420.629 52.696H419.629V53.696H420.629V52.696ZM437.862 52.696H438.862V51.696H437.862V52.696ZM437.862 61V62H438.862V61H437.862ZM411.318 61H410.318V62H411.318V61ZM411.318 28.024V27.024H410.318V28.024H411.318ZM437.862 28.024H438.862V27.024H437.862V28.024ZM437.862 35.328H420.629V37.328H437.862V35.328ZM419.629 36.328V40.024H421.629V36.328H419.629ZM420.629 41.024H436.326V39.024H420.629V41.024ZM435.326 40.024V48.328H437.326V40.024H435.326ZM436.326 47.328H420.629V49.328H436.326V47.328ZM419.629 48.328V52.696H421.629V48.328H419.629ZM420.629 53.696H437.862V51.696H420.629V53.696ZM436.862 52.696V61H438.862V52.696H436.862ZM437.862 60H411.318V62H437.862V60ZM412.318 61V28.024H410.318V61H412.318ZM411.318 29.024H437.862V27.024H411.318V29.024ZM436.862 28.024V36.328H438.862V28.024H436.862ZM472.679 33.256L473.337 34.0089L474.115 33.3293L473.411 32.574L472.679 33.256ZM465.815 39.256L465.02 39.862L465.668 40.7129L466.473 40.0089L465.815 39.256ZM465.863 49.768L466.521 49.0148L465.728 48.322L465.077 49.1502L465.863 49.768ZM472.679 55.72L473.415 56.3971L474.11 55.6418L473.337 54.9668L472.679 55.72ZM459.287 60.576C450.049 60.576 442.335 53.1542 442.335 44.488H440.335C440.335 54.3498 449.037 62.576 459.287 62.576V60.576ZM442.335 44.488C442.335 35.8253 450.045 28.448 459.287 28.448V26.448C449.041 26.448 440.335 34.6227 440.335 44.488H442.335ZM459.287 28.448C464.28 28.448 468.818 30.5812 471.948 33.938L473.411 32.574C469.916 28.8268 464.855 26.448 459.287 26.448V28.448ZM472.021 32.5031L465.157 38.5031L466.473 40.0089L473.337 34.0089L472.021 32.5031ZM466.611 38.65C464.909 36.4161 462.228 34.896 459.287 34.896V36.896C461.531 36.896 463.65 38.0639 465.02 39.862L466.611 38.65ZM459.287 34.896C454.197 34.896 449.935 39.3055 449.935 44.488H451.935C451.935 40.3585 455.353 36.896 459.287 36.896V34.896ZM449.935 44.488C449.935 49.7148 454.194 54.128 459.287 54.128V52.128C455.356 52.128 451.935 48.6692 451.935 44.488H449.935ZM459.287 54.128C462.281 54.128 464.907 52.604 466.649 50.3858L465.077 49.1502C463.652 50.964 461.574 52.128 459.287 52.128V54.128ZM465.205 50.5212L472.021 56.4732L473.337 54.9668L466.521 49.0148L465.205 50.5212ZM471.943 55.0429C468.815 58.4435 464.279 60.576 459.287 60.576V62.576C464.855 62.576 469.92 60.1965 473.415 56.3971L471.943 55.0429ZM484.442 61H483.442V62H484.442V61ZM484.442 36.328H485.442V35.328H484.442V36.328ZM474.698 36.328H473.698V37.328H474.698V36.328ZM474.698 28.024V27.024H473.698V28.024H474.698ZM503.498 28.024H504.498V27.024H503.498V28.024ZM503.498 36.328V37.328H504.498V36.328H503.498ZM493.754 36.328V35.328H492.754V36.328H493.754ZM493.754 61V62H494.754V61H493.754ZM485.442 61V36.328H483.442V61H485.442ZM484.442 35.328H474.698V37.328H484.442V35.328ZM475.698 36.328V28.024H473.698V36.328H475.698ZM474.698 29.024H503.498V27.024H474.698V29.024ZM502.498 28.024V36.328H504.498V28.024H502.498ZM503.498 35.328H493.754V37.328H503.498V35.328ZM492.754 36.328V61H494.754V36.328H492.754ZM493.754 60H484.442V62H493.754V60ZM504.915 56.008L504.148 55.3661L503.524 56.112L504.253 56.7568L504.915 56.008ZM510.099 49.816L510.717 49.0297L509.955 48.4308L509.332 49.1741L510.099 49.816ZM519.171 48.664L519.397 47.6898L519.394 47.6891L519.171 48.664ZM533.331 31.912L534.147 32.4899L534.691 31.7215L533.957 31.1321L533.331 31.912ZM528.675 38.488L528.092 39.3L528.909 39.8878L529.491 39.0659L528.675 38.488ZM521.763 40.552L521.554 41.5298L521.555 41.5302L521.763 40.552ZM520.659 60.576C514.911 60.576 509.543 58.7687 505.578 55.2592L504.253 56.7568C508.639 60.6393 514.503 62.576 520.659 62.576V60.576ZM505.682 56.6499L510.866 50.4579L509.332 49.1741L504.148 55.3661L505.682 56.6499ZM509.481 50.6023C512.99 53.3591 516.851 54.848 520.995 54.848V52.848C517.364 52.848 513.928 51.5529 510.717 49.0297L509.481 50.6023ZM520.995 54.848C522.355 54.848 523.536 54.6212 524.411 54.0914C525.343 53.527 525.883 52.6378 525.883 51.544H523.883C523.883 51.8902 523.751 52.153 523.375 52.3806C522.942 52.6428 522.179 52.848 520.995 52.848V54.848ZM525.883 51.544C525.883 51.0269 525.789 50.4933 525.457 50.0092C525.134 49.5374 524.665 49.2292 524.151 48.9956C523.177 48.5527 521.615 48.2034 519.397 47.6898L518.946 49.6382C521.288 50.1806 522.582 50.4793 523.323 50.8164C523.668 50.9728 523.772 51.0876 523.807 51.1393C523.834 51.1787 523.883 51.2691 523.883 51.544H525.883ZM519.394 47.6891C515.802 46.8694 512.81 46.0245 510.711 44.6123C509.682 43.9199 508.892 43.1053 508.354 42.1074C507.815 41.1098 507.499 39.8742 507.499 38.296H505.499C505.499 40.1498 505.873 41.7222 506.593 43.0571C507.314 44.3917 508.35 45.4341 509.595 46.2717C512.044 47.9195 515.389 48.8266 518.949 49.6389L519.394 47.6891ZM507.499 38.296C507.499 35.2928 508.672 32.8672 510.708 31.1751C512.762 29.4681 515.77 28.448 519.507 28.448V26.448C515.421 26.448 511.924 27.5639 509.43 29.6369C506.918 31.7248 505.499 34.7232 505.499 38.296H507.499ZM519.507 28.448C525.022 28.448 529.257 29.9245 532.705 32.6919L533.957 31.1321C530.109 28.0435 525.416 26.448 519.507 26.448V28.448ZM532.515 31.3341L527.859 37.9101L529.491 39.0659L534.147 32.4899L532.515 31.3341ZM529.259 37.676C526.042 35.3638 522.482 34.176 519.267 34.176V36.176C522.005 36.176 525.165 37.1962 528.092 39.3L529.259 37.676ZM519.267 34.176C518.023 34.176 516.958 34.4246 516.174 34.9642C515.351 35.5309 514.907 36.376 514.907 37.336H516.907C516.907 37.048 517.016 36.8131 517.308 36.6118C517.64 36.3834 518.255 36.176 519.267 36.176V34.176ZM514.907 37.336C514.907 37.8701 514.999 38.4148 515.304 38.9212C515.607 39.4251 516.06 39.7897 516.6 40.078C517.624 40.625 519.236 41.0332 521.554 41.5298L521.973 39.5742C519.586 39.0628 518.271 38.703 517.542 38.314C517.206 38.1343 517.077 37.9889 517.018 37.8897C516.959 37.7932 516.907 37.6419 516.907 37.336H514.907ZM521.555 41.5302C525.393 42.3458 528.333 43.239 530.311 44.6183C532.198 45.9338 533.243 47.7128 533.243 50.536H535.243C535.243 47.0712 533.888 44.6742 531.455 42.9777C529.114 41.345 525.813 40.3902 521.971 39.5738L521.555 41.5302ZM533.243 50.536C533.243 53.7356 532.032 56.1989 529.923 57.8849C527.787 59.5926 524.635 60.576 520.659 60.576V62.576C524.939 62.576 528.58 61.5194 531.172 59.4471C533.791 57.3531 535.243 54.2964 535.243 50.536H533.243Z" fill="#FF7528" mask="url(#path-1-outside-1_7_401)"/>
<path d="M29.8615 25.328H12.6295V29.984H28.3255V38.288H12.6295V50H3.3175V17.024H29.8615V25.328ZM61.1271 25.328H43.8951V29.024H59.5911V37.328H43.8951V41.696H61.1271V50H34.5831V17.024H61.1271V25.328ZM88.3608 50L86.6808 45.584H75.2088L73.5288 50H63.0168L75.6888 17.024H86.2008L98.8728 50H88.3608ZM77.8488 38.72H84.0408L80.9688 30.704L77.8488 38.72ZM106.489 50V25.328H96.7446V17.024H125.545V25.328H115.801V50H106.489ZM144.866 50.576C135.65 50.576 129.17 44.288 129.17 35.36V17.024H138.482V34.88C138.482 39.104 141.122 42.128 144.866 42.128C148.61 42.128 151.25 39.104 151.25 34.88V17.024H160.562V35.36C160.562 44.288 154.082 50.576 144.866 50.576ZM195.734 50H185.126L178.166 40.064H175.286V50H165.974V17.024H181.766C189.158 17.024 194.39 21.776 194.39 28.544C194.39 33.248 191.894 36.944 187.862 38.816L195.734 50ZM175.286 25.472V31.616H180.998C183.206 31.616 184.79 30.32 184.79 28.544C184.79 26.768 183.206 25.472 180.998 25.472H175.286ZM225.987 25.328H208.755V29.024H224.451V37.328H208.755V41.696H225.987V50H199.443V17.024H225.987V25.328ZM230.708 50V17.024H242.996C254.516 17.024 262.676 23.84 262.676 33.488C262.676 43.136 254.516 50 242.996 50H230.708ZM240.02 41.552H244.532C249.524 41.552 253.076 38.192 253.076 33.488C253.076 28.784 249.524 25.472 244.532 25.472H240.02V41.552ZM280.255 50V17.024H296.047C303.439 17.024 308.671 21.776 308.671 28.544C308.671 35.312 303.439 40.064 296.047 40.064H289.567V50H280.255ZM289.567 31.616H295.279C297.487 31.616 299.071 30.32 299.071 28.544C299.071 26.768 297.487 25.472 295.279 25.472H289.567V31.616ZM342.171 50H331.563L324.603 40.064H321.723V50H312.411V17.024H328.203C335.595 17.024 340.827 21.776 340.827 28.544C340.827 33.248 338.331 36.944 334.299 38.816L342.171 50ZM321.723 25.472V31.616H327.435C329.643 31.616 331.227 30.32 331.227 28.544C331.227 26.768 329.643 25.472 327.435 25.472H321.723ZM362.584 50.576C352.84 50.576 344.632 42.752 344.632 33.488C344.632 24.224 352.84 16.448 362.584 16.448C372.328 16.448 380.536 24.224 380.536 33.488C380.536 42.752 372.328 50.576 362.584 50.576ZM362.584 42.128C367.096 42.128 370.936 38.192 370.936 33.488C370.936 28.832 367.096 24.896 362.584 24.896C358.072 24.896 354.232 28.832 354.232 33.488C354.232 38.192 358.072 42.128 362.584 42.128ZM393.949 50.576C389.485 50.576 384.637 48.32 382.285 45.104L388.285 39.248C389.197 40.928 391.021 42.128 392.701 42.128C394.957 42.128 396.589 40.544 396.589 38.288V17.024H405.901V39.248C405.901 45.872 400.957 50.576 393.949 50.576ZM437.862 25.328H420.63V29.024H436.326V37.328H420.63V41.696H437.862V50H411.318V17.024H437.862V25.328ZM459.287 50.576C449.543 50.576 441.335 42.752 441.335 33.488C441.335 24.224 449.543 16.448 459.287 16.448C464.567 16.448 469.367 18.704 472.679 22.256L465.815 28.256C464.279 26.24 461.879 24.896 459.287 24.896C454.775 24.896 450.935 28.832 450.935 33.488C450.935 38.192 454.775 42.128 459.287 42.128C461.927 42.128 464.279 40.784 465.863 38.768L472.679 44.72C469.367 48.32 464.567 50.576 459.287 50.576ZM484.442 50V25.328H474.698V17.024H503.498V25.328H493.754V50H484.442ZM520.659 50.576C514.707 50.576 509.091 48.704 504.915 45.008L510.099 38.816C513.459 41.456 517.107 42.848 520.995 42.848C523.539 42.848 524.883 41.984 524.883 40.544C524.883 38.96 523.731 38.72 519.171 37.664C512.019 36.032 506.499 34.16 506.499 27.296C506.499 20.72 511.683 16.448 519.507 16.448C525.219 16.448 529.683 17.984 533.331 20.912L528.675 27.488C525.603 25.28 522.243 24.176 519.267 24.176C517.011 24.176 515.907 25.088 515.907 26.336C515.907 28.016 517.059 28.544 521.763 29.552C529.443 31.184 534.243 33.248 534.243 39.536C534.243 46.496 528.915 50.576 520.659 50.576Z" fill="white"/>
</svg>
