<svg width="1856" height="1494" viewBox="0 0 1856 1494" fill="none" xmlns="http://www.w3.org/2000/svg">
<path d="M560.387 12L376.592 379.592H744.183L560.387 12Z" stroke="#252525" stroke-width="10"/>
<path d="M1295.57 12L1111.77 379.592H1479.37L1295.57 12Z" stroke="#252525" stroke-width="10"/>
<path d="M927.979 12L744.183 379.592H1111.77L927.979 12Z" stroke="#252525" stroke-width="10"/>
<path d="M1663.16 12L1479.37 379.592H1846.96L1663.16 12Z" stroke="#252525" stroke-width="10"/>
<path d="M192.796 747.183L9 1114.77H376.592L192.796 747.183Z" stroke="#252525" stroke-width="10"/>
<path d="M927.979 747.183L744.183 1114.77H1111.77L927.979 747.183Z" stroke="#252525" stroke-width="10"/>
<path d="M560.387 747.183L376.592 1114.77H744.183L560.387 747.183Z" stroke="#252525" stroke-width="10"/>
<path d="M1295.57 747.183L1111.77 1114.77H1479.37L1295.57 747.183Z" stroke="#252525" stroke-width="10"/>
<path d="M376.592 379.592L192.796 747.183H560.387L376.592 379.592Z" stroke="#252525" stroke-width="10"/>
<path d="M1111.77 379.592L927.979 747.183H1295.57L1111.77 379.592Z" stroke="#252525" stroke-width="10"/>
<path d="M744.183 379.592L560.387 747.183H927.979L744.183 379.592Z" stroke="#252525" stroke-width="10"/>
<path d="M1479.37 379.592L1295.57 747.183H1663.16L1479.37 379.592Z" stroke="#252525" stroke-width="10"/>
<path d="M1663.16 747.183L1846.96 379.592L1479.37 379.592L1663.16 747.183Z" stroke="#252525" stroke-width="10"/>
<path d="M927.979 747.183L1111.77 379.592L744.183 379.592L927.979 747.183Z" stroke="#252525" stroke-width="10"/>
<path d="M1295.57 747.183L1479.37 379.592L1111.78 379.592L1295.57 747.183Z" stroke="#252525" stroke-width="10"/>
<path d="M560.387 747.183L744.183 379.592L376.592 379.592L560.387 747.183Z" stroke="#252525" stroke-width="10"/>
<path d="M1295.57 1482.37L1479.37 1114.78H1111.78L1295.57 1482.37Z" stroke="#252525" stroke-width="10"/>
<path d="M560.388 1482.37L744.183 1114.78H376.592L560.388 1482.37Z" stroke="#252525" stroke-width="10"/>
<path d="M927.979 1482.37L1111.77 1114.78H744.183L927.979 1482.37Z" stroke="#252525" stroke-width="10"/>
<path d="M192.796 1482.37L376.592 1114.78H9.00003L192.796 1482.37Z" stroke="#252525" stroke-width="10"/>
<path d="M1479.37 1114.78L1663.16 747.183H1295.57L1479.37 1114.78Z" stroke="#252525" stroke-width="10"/>
<path d="M744.183 1114.77L927.979 747.183H560.387L744.183 1114.77Z" stroke="#252525" stroke-width="10"/>
<path d="M1111.77 1114.77L1295.57 747.183H927.979L1111.77 1114.77Z" stroke="#252525" stroke-width="10"/>
<path d="M376.592 1114.77L560.387 747.183H192.796L376.592 1114.77Z" stroke="#252525" stroke-width="10"/>
</svg>
