<svg width="837" height="410" viewBox="0 0 837 410" fill="none" xmlns="http://www.w3.org/2000/svg">
<path d="M84.4208 74.6833L1 241.525H167.842L84.4208 74.6833Z" stroke="#FF7528"/>
<path d="M418.104 74.6833L334.683 241.525H501.525L418.104 74.6833Z" stroke="#FF7528"/>
<path d="M251.262 74.6833L167.842 241.525H334.683L251.262 74.6833Z" stroke="#FF7528"/>
<path d="M584.946 74.6833L501.525 241.525H668.367L584.946 74.6833Z" stroke="#FF7528"/>
<path d="M167.842 -92.1583L84.4208 74.6833H251.262L167.842 -92.1583Z" stroke="#FF7528"/>
<path d="M501.525 -92.1583L418.104 74.6833H584.946L501.525 -92.1583Z" stroke="#FF7528"/>
<path d="M334.683 -92.1583L251.262 74.6833H418.104L334.683 -92.1583Z" stroke="#FF7528"/>
<path d="M668.367 -92.1583L584.946 74.6833H751.787L668.367 -92.1583Z" stroke="#FF7528"/>
<path d="M751.787 74.6833L835.208 -92.1583L668.367 -92.1583L751.787 74.6833Z" stroke="#FF7528"/>
<path d="M418.104 74.6833L501.525 -92.1583L334.683 -92.1583L418.104 74.6833Z" stroke="#FF7528"/>
<path d="M584.946 74.6833L668.367 -92.1583L501.525 -92.1583L584.946 74.6833Z" stroke="#FF7528"/>
<path d="M251.262 74.6833L334.683 -92.1583L167.842 -92.1583L251.262 74.6833Z" stroke="#FF7528"/>
<path d="M584.946 408.367L668.367 241.525L501.525 241.525L584.946 408.367Z" stroke="#FF7528"/>
<path d="M251.262 408.367L334.683 241.525L167.842 241.525L251.262 408.367Z" stroke="#FF7528"/>
<path d="M418.104 408.367L501.525 241.525L334.683 241.525L418.104 408.367Z" stroke="#FF7528"/>
<path d="M84.4208 408.367L167.842 241.525L1 241.525L84.4208 408.367Z" stroke="#FF7528"/>
<path d="M668.367 241.525L751.787 74.6833L584.946 74.6833L668.367 241.525Z" stroke="#FF7528"/>
<path d="M334.683 241.525L418.104 74.6833L251.262 74.6833L334.683 241.525Z" stroke="#FF7528"/>
<path d="M501.525 241.525L584.946 74.6833L418.104 74.6833L501.525 241.525Z" stroke="#FF7528"/>
<path d="M167.842 241.525L251.262 74.6833L84.4208 74.6833L167.842 241.525Z" stroke="#FF7528"/>
</svg>
