<svg width="380" height="131" viewBox="0 0 380 131" fill="none" xmlns="http://www.w3.org/2000/svg">
<path d="M1 130.263C26.4528 110.225 54.2555 94.493 81.9983 77.8474C110.026 61.0306 138.757 45.9635 167.981 31.3512C183.121 23.7813 199.268 16.9582 213.854 8.29781C216.077 6.97783 202.522 9.04138 201.782 9.15452C191.751 10.6888 182.45 13.3302 173.277 17.7217C146.635 30.4757 123.385 51.3358 103.806 73.1744C102.913 74.1694 85.2111 93.4668 89.9424 96.3056C92.6359 97.9217 100.562 96.0502 102.871 95.6826C124.721 92.2039 145.373 84.31 165.489 75.2772C201.205 59.2394 235.951 40.6816 267.671 17.6438C274.417 12.7447 294.124 -2.55163 286.986 1.75564C276.599 8.02419 267.624 17.1097 258.793 25.2763C241.172 41.5705 223.835 58.1719 205.677 73.8753C198.177 80.3611 190.508 86.9731 182.234 92.4894C173.568 98.2664 200.562 82.5575 210.038 78.2368C226.728 70.6267 243.718 63.3239 261.051 57.2862C261.422 57.157 275.117 52.286 266.425 57.442C253.4 65.1691 239.498 71.5908 225.693 77.7695C219.242 80.6564 199.384 87.7925 206.3 86.3366C218.111 83.85 229.489 80.5223 241.503 78.7041C252.231 77.0803 269.635 72.6822 280.6 76.056C284.019 77.1079 276.912 82.6471 273.746 84.3116C252.963 95.2398 227.971 99.9134 205.054 103.471C174.065 108.281 142.445 109.602 111.127 108.611C107.451 108.495 77.3476 109.625 74.21 103.938C72.9965 101.739 78.8954 102.004 81.3753 101.602C89.49 100.287 101.584 99.1633 109.257 98.6421C160.665 95.1503 212.313 94.1969 263.777 91.7884C350.387 87.7351 437.163 81.1963 523.907 81.1963" stroke="white" stroke-linecap="round"/>
</svg>
