<svg width="1165" height="273" viewBox="0 0 1165 273" fill="none" xmlns="http://www.w3.org/2000/svg">
<path d="M84.3975 37.8947H36.83V50.7472H80.1575V73.6697H36.83V106H11.1249V14.9722H84.3975V37.8947ZM139.964 107.59C114.524 107.59 96.6362 90.2323 96.6362 65.5872V14.9722H122.341V64.2622C122.341 75.9222 129.629 84.2698 139.964 84.2698C150.299 84.2698 157.586 75.9222 157.586 64.2622V14.9722H183.291V65.5872C183.291 90.2323 165.404 107.59 139.964 107.59ZM223.935 83.0773H266.335V106H198.23V14.9722H223.935V83.0773ZM302.995 83.0773H345.395V106H277.29V14.9722H302.995V83.0773ZM429.021 107.59C412.591 107.59 397.089 102.422 385.561 92.2198L399.871 75.1272C409.146 82.4148 419.216 86.2573 429.949 86.2573C436.971 86.2573 440.681 83.8723 440.681 79.8972C440.681 75.5247 437.501 74.8622 424.914 71.9472C405.171 67.4422 389.934 62.2747 389.934 43.3272C389.934 25.1747 404.244 13.3822 425.841 13.3822C441.609 13.3822 453.931 17.6222 464.001 25.7047L451.149 43.8572C442.669 37.7622 433.394 34.7147 425.179 34.7147C418.951 34.7147 415.904 37.2322 415.904 40.6772C415.904 45.3147 419.084 46.7722 432.069 49.5547C453.269 54.0597 466.519 59.7572 466.519 77.1147C466.519 96.3273 451.811 107.59 429.021 107.59ZM500.105 106V37.8947H473.208V14.9722H552.708V37.8947H525.81V106H500.105ZM620.348 106L615.711 93.8098H584.043L579.406 106H550.388L585.368 14.9722H614.386L649.366 106H620.348ZM591.331 74.8622H608.423L599.943 52.7347L591.331 74.8622ZM703.561 107.59C676.664 107.59 654.006 85.9923 654.006 60.4197C654.006 34.8472 676.664 13.3822 703.561 13.3822C718.136 13.3822 731.386 19.6097 740.529 29.4147L721.581 45.9772C717.341 40.4122 710.716 36.7022 703.561 36.7022C691.106 36.7022 680.506 47.5672 680.506 60.4197C680.506 73.4047 691.106 84.2698 703.561 84.2698C710.849 84.2698 717.341 80.5597 721.714 74.9947L740.529 91.4248C731.386 101.362 718.136 107.59 703.561 107.59ZM751.004 106V14.9722H776.709V50.8797L807.316 14.9722H837.659L804.004 52.9997L840.309 106H809.569L786.116 71.5497L776.709 81.8847V106H751.004ZM883.116 106V14.9722H917.036C948.836 14.9722 971.361 33.7872 971.361 60.4197C971.361 87.0523 948.836 106 917.036 106H883.116ZM908.821 82.6798H921.276C935.056 82.6798 944.861 73.4047 944.861 60.4197C944.861 47.4347 935.056 38.2922 921.276 38.2922H908.821V82.6798ZM1057.06 37.8947H1009.49V48.0972H1052.82V71.0197H1009.49V83.0773H1057.06V106H983.785V14.9722H1057.06V37.8947ZM1132.23 14.9722H1161.25L1126.27 106H1097.25L1062.27 14.9722H1091.29L1111.83 68.2372L1132.23 14.9722Z" fill="white"/>
<path d="M10.9116 242.312V141.115H39.4883V242.312H10.9116ZM57.6491 242.312V141.115H86.2258L125.703 195.322V141.115H154.28V242.312H125.703L86.2258 188.104V242.312H57.6491ZM236.596 242.312V166.598H206.694V141.115H295.076V166.598H265.173V242.312H236.596ZM372.635 141.115H401.212V242.312H372.635V203.424H335.662V242.312H307.085V141.115H335.662V177.94H372.635V141.115ZM500.315 166.598H447.434V177.94H495.602V203.424H447.434V216.828H500.315V242.312H418.857V141.115H500.315V166.598ZM554.939 242.312V141.115H583.516L610.62 189.43L637.723 141.115H666.3V242.312H637.723V188.104L610.62 236.42L583.516 188.104V242.312H554.939ZM753.058 242.312L747.902 228.76H712.697L707.541 242.312H675.282L714.17 141.115H746.429L785.317 242.312H753.058ZM720.799 207.696H739.801L730.373 183.096L720.799 207.696ZM794.306 242.312V141.115H822.883V181.034L856.91 141.115H890.642L853.227 183.391L893.588 242.312H859.414L833.341 204.013L822.883 215.503V242.312H794.306ZM901.632 242.312V141.115H930.209V242.312H901.632ZM948.37 242.312V141.115H976.946L1016.42 195.322V141.115H1045V242.312H1016.42L976.946 188.104V242.312H948.37ZM1109.13 204.16V183.096H1156.56V226.108C1146.1 237.451 1130.64 244.079 1114.73 244.079C1084.38 244.079 1058.9 220.069 1058.9 191.64C1058.9 163.21 1084.38 139.347 1114.73 139.347C1130.64 139.347 1146.1 145.976 1156.56 157.171L1135.5 175.584C1130.49 169.102 1122.83 165.272 1114.73 165.272C1100.44 165.272 1088.36 177.351 1088.36 191.64C1088.36 206.075 1100.44 218.154 1114.73 218.154C1119.74 218.154 1124.6 216.681 1128.87 214.03V204.16H1109.13Z" fill="white"/>
</svg>
