<?xml version="1.0" encoding="UTF-8" standalone="no"?>
<!-- Created with Inkscape (http://www.inkscape.org/) -->

<svg
   width="93.131943mm"
   height="89.377174mm"
   viewBox="0 0 93.131943 89.377174"
   version="1.1"
   id="svg1"
   xml:space="preserve"
   xmlns:inkscape="http://www.inkscape.org/namespaces/inkscape"
   xmlns:sodipodi="http://sodipodi.sourceforge.net/DTD/sodipodi-0.dtd"
   xmlns="http://www.w3.org/2000/svg"
   xmlns:svg="http://www.w3.org/2000/svg"><sodipodi:namedview
     id="namedview1"
     pagecolor="#ffffff"
     bordercolor="#000000"
     borderopacity="0.25"
     inkscape:showpageshadow="2"
     inkscape:pageopacity="0.0"
     inkscape:pagecheckerboard="0"
     inkscape:deskcolor="#d1d1d1"
     inkscape:document-units="mm" /><defs
     id="defs1" /><g
     inkscape:label="Layer 1"
     inkscape:groupmode="layer"
     id="layer1"
     transform="translate(124.92273,-62.190306)"><path
       style="fill:#ffffff"
       d="m -61.565708,151.0525 c -1.35987,-1.50264 -1.71922,-3.87534 -1.88327,-12.43458 l -0.13457,-7.02189 -1.93884,0.18519 c -4.78928,0.45747 -9.2553,1.89736 -9.96208,3.21186 -0.19289,0.35875 -0.39553,2.57624 -0.51354,5.61966 -0.10722,2.76489 -0.32456,5.36225 -0.48299,5.77191 -0.15842,0.40965 -0.28804,1.07797 -0.28804,1.48515 0,1.04874 -2.30021,3.19398 -3.4247,3.19398 -0.9244,0 -1.31404,-0.6878 -2.16322,-3.81857 -0.45185,-1.66586 -0.49731,-2.90419 -0.49539,-13.49375 0.002,-12.11204 0.0926,-13.56762 1.31426,-21.15581 0.30201,-1.87595 0.48839,-3.47156 0.41417,-3.54578 -0.30223,-0.30222 -6.5702,3.10733 -10.19617,5.54635 -1.34131,0.90224 -2.34698,1.41702 -2.49014,1.27464 -0.37181,-0.36977 0.17817,-0.86567 2.69568,-2.43058 5.06963,-3.15131 9.45373,-5.50358 10.25744,-5.50358 0.72651,0 0.72742,1.45147 0.004,6.06018 -0.96988,6.17724 -1.26074,12.00487 -1.15588,23.15887 l 0.0872,9.27782 0.78149,1.91823 c 0.42982,1.05503 0.90011,1.91823 1.04509,1.91823 0.14498,0 0.77412,-0.50104 1.39809,-1.11342 0.78666,-0.77205 1.1345,-1.33461 1.1345,-1.83486 0,-0.39679 0.12573,-1.05214 0.2794,-1.45633 0.15367,-0.40419 0.37645,-3.01046 0.49506,-5.79172 0.12396,-2.90674 0.34642,-5.30117 0.52319,-5.63148 0.78626,-1.46912 6.35616,-3.18307 11.73307,-3.61044 l 2.05053,-0.16298 0.01,7.35322 c 0.01,7.41217 0.23607,9.86991 1.06642,11.58332 0.55262,1.14034 1.12311,1.10793 2.4778,-0.14078 1.87907,-1.73207 2.49992,-3.28954 2.82385,-7.08389 0.39429,-4.61852 0.21501,-17.72688 -0.24634,-18.01164 -0.28061,-0.1732 -0.3329,-1.58798 -0.26119,-7.06767 0.0757,-5.78215 0.16078,-7.00957 0.54551,-7.86661 0.25455,-0.56705 0.60358,-0.96938 0.79036,-0.91108 0.5707,0.17816 2.21117,3.59294 2.55355,5.31544 0.27298,1.3734 0.25338,2.19481 -0.12121,5.07791 -0.49064,3.77639 -0.3959,9.2874 0.1946,11.3187 0.26818,0.92257 0.99976,2.07352 2.36991,3.72845 0.10501,0.12683 0.50905,-0.3972 0.89788,-1.16452 1.04602,-2.06421 1.37261,-5.61555 0.95748,-10.41141 -0.46863,-5.4138 -1.16879,-10.13267 -2.08535,-14.05467 -1.01959,-4.36287 -1.48528,-7.17439 -1.27787,-7.71491 0.13539,-0.3528 0.0189,-0.39519 -0.70235,-0.25565 -0.47556,0.092 -1.22184,0.33299 -1.6584,0.53553 -0.43656,0.20254 -1.92484,0.63961 -3.30729,0.97128 -2.22176,0.53304 -3.34035,0.61409 -9.63608,0.69818 -4.44796,0.0594 -7.18242,-0.002 -7.28198,-0.16284 -0.0993,-0.16075 -0.95494,-0.18091 -2.27017,-0.0535 -1.56606,0.15171 -2.3342,0.11195 -2.97672,-0.15405 -0.93481,-0.38701 -2.73498,-2.05776 -3.24603,-3.012665 -0.31361,-0.58598 -0.34458,-0.58859 -4.84868,-0.40961 -2.49318,0.0991 -4.8736,0.25277 -5.28982,0.34155 -0.75522,0.16108 -0.75644,0.16473 -0.59733,1.778635 0.47163,4.78398 0.47944,6.48229 0.0445,9.66835 -0.5705,4.17883 -1.15823,5.41742 -3.32891,7.01538 -0.8694,0.64002 -1.9078,1.22671 -2.30756,1.30377 -4.000412,0.77109 -3.662532,0.6174 -4.024532,1.83056 -0.43023,1.44185 -1.8822,2.81495 -4.16105,3.93503 -1.74177,0.85609 -1.89271,0.88242 -4.97397,0.8675 -3.70715,-0.0179 -4.63329,-0.33443 -6.02732,-2.05971 -1.86245,-2.305 -2.8389,-4.25095 -2.8389,-5.65757 0,-0.9995 -0.13318,-1.43392 -0.55718,-1.81747 -0.50871,-0.46018 -0.5478,-0.72268 -0.44929,-3.01757 0.11407,-2.65748 0.51712,-3.89264 1.6795,-5.14686 0.37555,-0.40523 0.48825,-0.67397 0.28263,-0.67397 -0.18809,0 -1.05,-0.35381 -1.91536,-0.78623 -2.11301,-1.05589 -2.74447,-2.28102 -2.74447,-5.32466 0,-3.081625 1.05314,-5.548785 3.13042,-7.333545 3.3961,-2.91785 7.30716,-4.8247 10.29718,-5.02042 1.60014,-0.10475 1.91823,-0.0584 1.91823,0.27925 0,0.30921 -0.45303,0.4483 -1.91823,0.58894 -2.88869,0.27727 -6.91953,2.26947 -9.75817,4.82287 -1.55033,1.39454 -2.65157,3.8834 -2.81768,6.368105 -0.23034,3.44561 0.58262,4.35845 5.36596,6.02521 1.78637,0.62247 2.66152,0.7557 5.60838,0.85384 3.24888,0.10819 3.55736,0.0757 4.43549,-0.467 1.62824,-1.00631 3.56528,-4.31347 3.57636,-6.10603 0.011,-1.783125 -2.6604,-3.438915 -6.22405,-3.857745 -1.30113,-0.15293 -1.38827,-0.12309 -1.9519,0.66845 -0.56995,0.80042 -1.07866,0.88832 -1.07866,0.18638 0,-0.18706 0.27168,-0.65628 0.60374,-1.04272 0.51476,-0.59907 0.81418,-0.70261 2.03175,-0.70261 2.20762,0 4.94858,0.98923 6.28904,2.26975 1.06062,1.0132 1.12928,1.16676 1.12383,2.513535 -0.007,1.62821 -0.53302,2.95904 -1.95146,4.93341 l -0.96906,1.34885 0.66941,0.98644 c 1.32647,1.95465 0.64148,6.25355 -1.29684,8.13878 -1.66194,1.61643 -1.99147,1.75489 -4.93725,2.07447 l -2.75378,0.29874 -2.4474,-1.06565 -2.44739,-1.06565 v 1.00949 c 0,1.22971 1.47503,3.84292 3.08127,5.45888 1.25727,1.26489 2.29535,1.54166 5.78227,1.54166 1.73415,0 2.38538,-0.126 3.60362,-0.69722 2.0442,-0.95851 3.50163,-2.337 3.93714,-3.72391 0.19605,-0.62432 0.43268,-1.22609 0.52583,-1.33727 0.0932,-0.11119 1.14432,-0.37357 2.33592,-0.58307 2.117392,-0.37228 4.082222,-1.35592 5.009612,-2.50793 1.76236,-2.18922 2.42274,-8.99083 1.52968,-15.75496 -0.3634,-2.752445 -0.42958,-2.945715 -1.23315,-3.601555 -0.46702,-0.38117 -1.05423,-0.6394 -1.30491,-0.57384 -0.40987,0.10718 -0.4758,-0.27621 -0.65469,-3.80678 -0.10941,-2.15928 -0.11982,-7.43831 -0.0231,-11.73117 0.20054,-8.90429 0.0664,-9.91194 -1.48235,-11.1357 -1.254262,-0.99106 -3.730002,-1.22729 -4.835242,-0.46137 -1.48321,1.02786 -2.76033,2.9042 -3.44559,5.06229 -0.56207,1.7701 -0.65545,2.56866 -0.65545,5.60517 0,1.94755 0.1062,3.82033 0.236,4.16173 0.12981,0.34141 0.32248,1.65885 0.42817,2.92765 0.16558,1.98774 0.13557,2.30689 -0.21696,2.30689 -0.30278,0 -0.45153,-0.39548 -0.57221,-1.52135 -0.0897,-0.83674 -0.27686,-2.24548 -0.41592,-3.13053 -0.13906,-0.88504 -0.25283,-3.27294 -0.25283,-5.30643 0,-5.21413 0.83507,-7.60491 3.51906,-10.07491 1.42408,-1.31054 2.07226,-1.51632 4.17537,-1.32562 1.17905,0.10691 1.773052,0.31797 2.423792,0.86121 1.97653,1.65001 2.09025,2.42945 2.02547,13.88305 -0.0703,12.43042 -0.0544,13.00494 0.35787,12.91816 0.62242,-0.13103 1.84809,0.94129 2.31144,2.02224 l 0.46307,1.08031 2.21769,-0.18411 c 1.21974,-0.10126 3.55055,-0.19357 5.1796,-0.20514 l 2.9619,-0.021 -0.55789,-1.34243 c -0.43638,-1.05004 -0.6637,-1.31476 -1.04367,-1.2154 -0.26718,0.0699 -0.48578,0.0304 -0.48578,-0.0877 0,-0.11813 -0.41672,-0.71356 -0.92605,-1.32318 -0.50932,-0.60962 -0.92571,-1.24596 -0.9253,-1.4141 4e-4,-0.16813 -0.22595,-0.78194 -0.503,-1.36403 -2.10672,-4.42618 -2.40815,-5.80117 -2.40815,-10.98468 0,-6.34762 0.88119,-9.28606 3.6004,-12.00591 3.78991,-3.7908 9.21388,-6.9149 9.7192,-5.59806 0.0867,0.22579 0.0224,0.41053 -0.14284,0.41053 -0.16521,0 -0.23957,0.0608 -0.16526,0.13511 0.0743,0.0743 0.65971,-0.0578 1.30087,-0.29354 0.87037,-0.32005 2.51642,-0.46376 6.49632,-0.56717 5.98648,-0.15555 7.47852,0.0659 11.23459,1.66728 2.00858,0.85636 8.96713,5.29054 8.96713,5.7141 0,0.12286 0.13603,0.22338 0.30228,0.22338 0.16625,0 1.51937,1.20276 3.00694,2.67279 2.02368,1.99983 2.87146,3.04905 3.36711,4.16719 1.36383,3.07668 1.77531,4.64137 1.78457,6.78607 0.008,1.95933 -0.73732,6.14952 -1.16572,6.54971 -0.21481,0.20065 -0.27942,0.99226 -0.20176,2.47183 0.13105,2.49677 -0.45983,4.95391 -1.37994,5.73839 -1.43486,1.22337 -3.17404,1.865425 -5.38275,1.987155 -1.36966,0.0755 -2.18241,0.23115 -2.18175,0.41786 0.003,0.85377 0.91188,5.71696 1.61179,8.6248 1.09124,4.53365 2.08228,12.4738 2.08137,16.67587 -7.5e-4,3.5247 -0.40089,5.92741 -1.25141,7.51442 -1.01379,1.89169 -1.72166,1.94168 -3.01244,0.21273 -1.91512,-2.56523 -2.08381,-3.16572 -2.24506,-7.99173 -0.1032,-3.08869 -0.0307,-5.26667 0.24793,-7.44612 0.44507,-3.48149 0.26433,-4.87436 -0.93924,-7.23826 l -0.67356,-1.32291 -0.18055,1.19899 c -0.0993,0.65944 -0.11,3.51694 -0.0238,6.35 0.35062,11.51812 0.43846,23.16505 0.19634,26.03338 -0.22508,2.66645 -0.35821,3.21388 -1.09455,4.50086 -0.78714,1.37579 -2.3161,2.87251 -3.63021,3.55367 -0.79383,0.41147 -0.98557,0.38165 -1.54896,-0.24089 z m -50.734462,-33.364 c 1.78328,-0.26157 2.22775,-0.44074 3.29505,-1.32825 1.51267,-1.25786 2.07358,-2.71648 2.07358,-5.3923 0,-1.51935 -0.10955,-2.04082 -0.54501,-2.59442 -0.52025,-0.66139 -0.57445,-0.67357 -1.19318,-0.26816 -0.54772,0.35888 -1.27306,0.40449 -4.68051,0.29431 -2.30774,-0.0746 -4.41926,-0.27584 -4.93699,-0.47046 -0.86252,-0.32424 -0.93332,-0.30426 -1.52058,0.42901 -0.33877,0.423 -0.81553,1.18581 -1.05947,1.69513 -0.55389,1.15646 -0.8178,4.87135 -0.3659,5.15064 0.19476,0.12037 0.36963,-0.0172 0.45968,-0.36152 0.13946,-0.5333 0.6136,-0.73136 0.94867,-0.39629 0.0877,0.0877 0.0567,0.42977 -0.0688,0.7601 -0.25726,0.67666 -0.19063,0.72096 3.04026,2.02108 2.16596,0.87158 1.92287,0.84696 4.55325,0.46113 z m 51.273832,-16.21099 c 4.391,-0.65488 5.91348,-1.03355 6.03578,-1.501195 0.13712,-0.52437 2.58023,-0.86922 5.93662,-0.83798 1.20055,0.0112 2.18281,-0.0643 2.18281,-0.16772 0,-0.10341 0.40652,-0.33503 0.90338,-0.51469 0.49686,-0.17967 1.26221,-0.69369 1.70079,-1.14228 1.36568,-1.39685 1.61475,-3.56727 0.94427,-8.22851 -0.15259,-1.06082 -0.11329,-1.25677 0.25206,-1.25677 0.26495,0 0.4427,0.23091 0.45826,0.59531 0.014,0.32743 0.25751,-0.47625 0.54118,-1.78593 0.57577,-2.65832 0.51419,-5.15974 -0.15908,-6.4617 -0.22414,-0.43344 -0.40752,-1.03802 -0.40752,-1.34351 0,-1.00422 -0.82469,-2.21574 -3.14037,-4.61343 -2.81598,-2.91572 -4.15167,-4.02458 -7.78097,-6.45957 -3.31227,-2.22229 -5.90652,-3.4663 -8.61048,-4.12894 -1.64985,-0.40432 -2.73274,-0.4541 -7.40602,-0.34045 -3.8128,0.0927 -5.83489,0.25231 -6.66425,0.52595 -1.12138,0.36999 -2.16833,0.66113 -4.61092,1.28221 -1.0496,0.26688 -3.09175,1.61662 -3.89531,2.57456 -0.24003,0.28616 -0.60043,0.62219 -0.80088,0.74675 -0.82587,0.51318 -2.17313,2.61414 -2.82365,4.40328 -0.64536,1.77492 -0.70028,2.27688 -0.78414,7.16678 -0.0603,3.51769 0.004,5.35247 0.19465,5.54302 0.15666,0.15666 0.28484,0.5555 0.28484,0.8863 0,0.58846 0.47026,1.78839 1.74643,4.45627 0.34915,0.72991 0.63482,1.4533 0.63482,1.60753 0,0.15423 0.29765,0.56005 0.66145,0.90182 l 0.66146,0.62141 v -1.50133 c 0,-1.09436 0.0982,-1.50133 0.36226,-1.50133 0.3488,0 0.68674,1.26015 0.69316,2.5848 0.002,0.33023 0.32627,1.43156 0.72149,2.4474 0.65047,1.67191 0.78839,1.84697 1.45521,1.84697 0.47839,0 0.73663,0.13913 0.73663,0.39687 0,0.21828 -0.17859,0.39688 -0.39687,0.39688 -0.69543,0 -0.40277,0.63486 0.69984,1.518135 1.76514,1.41403 2.6604,1.55469 6.38694,1.00348 1.77758,-0.26293 3.61892,-0.53416 4.09186,-0.60274 0.73059,-0.10594 0.8599,-0.0433 0.8599,0.41666 0,0.41247 -0.20471,0.56675 -0.8599,0.64806 -0.47294,0.0587 0.86651,0.12158 2.97657,0.13974 2.11005,0.0182 4.90802,-0.12678 6.2177,-0.32211 z m -15.08125,-2.016265 c -0.7276,-0.28518 -1.6801,-0.68027 -2.11666,-0.87799 -0.43657,-0.19771 -1.21387,-0.54082 -1.72735,-0.76246 -1.61567,-0.6974 -2.54639,-1.6749 -2.88855,-3.03376 -0.8263,-3.28153 -0.50607,-14.27858 0.47343,-16.25833 l 0.49133,-0.99307 -0.82026,0.34494 c -0.45115,0.18972 -1.23699,0.60014 -1.74631,0.91205 -1.06326,0.65113 -1.5875,0.72232 -1.5875,0.21557 0,-0.66655 6.97052,-3.84501 7.2919,-3.32501 0.22193,0.3591 0.19754,0.37785 -1.48509,1.1417 l -1.44119,0.65425 2.64584,-0.001 c 1.45521,-7.7e-4 3.59833,-0.10324 4.7625,-0.22771 7.28864,-0.77927 11.35021,-0.98788 20.37291,-1.04641 l 2.91042,-0.0189 -0.8599,-0.52429 c -0.47294,-0.28836 -0.85989,-0.70463 -0.85989,-0.92505 0,-0.22043 0.0594,-0.40077 0.13199,-0.40077 0.29005,0 4.911,2.45752 5.05301,2.6873 0.0837,0.13546 0.0244,0.40032 -0.13184,0.58857 -0.21226,0.25576 -0.11074,0.50359 0.40173,0.98059 0.92182,0.85803 1.93253,2.93566 2.36994,4.87167 0.45496,2.01372 0.50708,9.67776 0.0716,10.52077 -1.75479,3.39656 -2.40983,3.89869 -5.97589,4.58099 -1.08187,0.207 -3.41508,0.37854 -5.18491,0.38121 -1.76983,0.003 -4.4085,0.17149 -5.86371,0.37516 -1.4552,0.20368 -4.96755,0.43524 -7.8052,0.5146 -4.702,0.13148 -5.27666,0.0983 -6.4823,-0.37423 z m 2.60798,-1.77715 0.90994,-0.46302 0.19016,-4.01017 c 0.1046,-2.2056 0.10971,-4.14036 0.0114,-4.29948 -0.10347,-0.16742 -1.0083,-0.28931 -2.14756,-0.28931 h -1.96876 v 1.1483 c 0,0.63157 -0.23813,2.07936 -0.52917,3.21733 -0.29104,1.13796 -0.52916,2.52622 -0.52916,3.08503 0,0.63193 -0.12503,1.01919 -0.33073,1.02442 -0.18286,0.005 -0.0941,0.18901 0.19843,0.41233 0.29105,0.22216 0.78936,0.35541 1.10738,0.29613 0.31801,-0.0593 0.73473,-0.009 0.92604,0.11279 0.53636,0.34012 1.16756,0.2717 2.16206,-0.23435 z m 5.86857,-0.33893 c 0.42526,-0.35293 0.52669,-3.63225 0.21456,-6.93711 l -0.16867,-1.78594 h -1.90509 -1.90508 l -0.18082,4.41152 c -0.14127,3.44667 -0.10684,4.46235 0.15741,4.64392 0.45996,0.31604 3.30748,0.0661 3.78769,-0.33239 z m 6.14361,-0.36333 c 2.89069,-0.51741 2.93288,-0.58701 2.53606,-4.18409 -0.18112,-1.64175 -0.33512,-3.25289 -0.34224,-3.58032 -0.0128,-0.58732 -0.0609,-0.59531 -3.58481,-0.59531 h -3.57187 v 3.91407 3.91408 l 1.12447,0.43207 c 1.36962,0.52625 1.44349,0.52817 3.83839,0.0995 z m 7.78653,0.0977 c 0.64831,-0.18006 1.14956,-0.55667 1.49465,-1.123 0.5545,-0.91 0.57108,-0.56611 -0.25783,-5.34701 -0.15109,-0.87148 -0.33074,-1.67515 -0.3992,-1.78594 -0.15943,-0.25796 -4.88889,-0.25701 -5.29074,0.001 -0.22074,0.14176 -0.23764,0.91071 -0.0624,2.84022 0.38253,4.21213 0.42369,4.36562 1.17082,4.36562 0.40092,0 0.64947,0.15189 0.64947,0.39688 0,0.21828 -0.12609,0.39687 -0.2802,0.39687 -0.15411,0 -0.20661,0.11907 -0.11667,0.26459 0.2113,0.3419 1.84533,0.33699 3.0921,-0.009 z m -25.97856,-0.53651 c 0,-0.15467 0.26608,-0.24396 0.59129,-0.19844 0.53714,0.0752 0.60957,-0.0614 0.79093,-1.49222 0.10981,-0.86625 0.31328,-1.93782 0.45217,-2.38125 0.13889,-0.44344 0.33472,-1.50894 0.43519,-2.36778 l 0.18268,-1.56153 -0.86233,0.17247 c -0.47428,0.0949 -1.41903,0.17246 -2.09945,0.17246 -1.1938,0 -1.25615,0.0394 -1.78058,1.12448 -0.45459,0.94059 -0.51109,1.3841 -0.34548,2.71198 0.25991,2.08394 0.58388,2.85045 1.49044,3.52638 0.84146,0.62739 1.14514,0.70521 1.14514,0.29345 z m 31.93155,-0.76395 c 0.92981,-0.56695 1.25524,-1.05761 1.51991,-2.29164 0.15476,-0.72154 0.0157,-1.01183 -1.12561,-2.34927 -0.86515,-1.01384 -1.25875,-1.69214 -1.17275,-2.02101 0.1174,-0.4489 -0.0435,-0.495 -1.72838,-0.495 h -1.85782 l 0.33755,1.38906 c 0.18565,0.76399 0.48775,2.4011 0.67134,3.63802 0.18358,1.23693 0.3846,2.33826 0.4467,2.4474 0.22198,0.39014 2.08128,0.18717 2.90906,-0.31756 z m -32.11575,-7.89121 1.452,-0.12041 0.15985,-1.68932 c 0.0879,-0.92912 0.23527,-2.48205 0.32745,-3.45096 0.14799,-1.5556 0.11743,-1.7424 -0.26128,-1.59707 -0.26062,0.10001 -0.69788,-0.0847 -1.11455,-0.47088 -0.84161,-0.77998 -2.20833,-1.13368 -2.50786,-0.64902 -0.11573,0.18724 -0.28339,1.47989 -0.37259,2.87255 -0.0892,1.39266 -0.20857,2.82977 -0.26527,3.19357 -0.0567,0.3638 0.0663,0.89257 0.27335,1.17505 0.20704,0.28247 0.37826,0.75872 0.38048,1.05833 0.003,0.42228 0.0572,0.46087 0.24023,0.17166 0.13784,-0.21774 0.84079,-0.42323 1.68819,-0.4935 z m 5.90581,-0.32404 h 1.95131 v -3.02107 c 0,-3.21298 -0.11236,-3.8581 -0.67194,-3.8581 -0.19291,0 -0.42632,-0.23812 -0.51869,-0.52917 -0.19172,-0.60405 -0.46289,-0.65405 -1.25322,-0.23108 -0.44591,0.23864 -0.61893,0.21335 -0.86767,-0.12682 -0.27755,-0.37957 -0.37857,-0.35267 -0.94698,0.25225 -0.5468,0.58191 -0.66137,1.03704 -0.81459,3.23568 -0.0981,1.40718 -0.26548,3.0236 -0.37205,3.59204 l -0.19377,1.03353 0.86815,-0.17363 c 0.47748,-0.0955 1.74624,-0.17363 2.81945,-0.17363 z m 26.69728,-2.18281 c 0.41377,-1.34607 0.74249,-2.8165 0.73048,-3.26762 -0.0306,-1.14865 -0.70684,-2.33554 -1.81032,-3.1772 -1.39907,-1.06712 -1.691,-0.62064 -2.12298,3.24685 -0.1924,1.7225 -0.41945,3.69737 -0.50456,4.38859 l -0.15474,1.25677 h 1.55491 1.55491 z m -20.7142,-1.45521 c 0.15602,-4.56594 -0.002,-4.95268 -1.94741,-4.76575 -0.71624,0.0688 -1.33317,0.17212 -1.37097,0.22955 -0.0378,0.0574 -0.0243,1.92013 0.0301,4.13932 l 0.0988,4.0349 h 1.53259 1.53258 z m 9.28947,2.77812 c 0.33861,-1.92867 0.51217,-6.0969 0.24704,-5.93304 -0.32517,0.20097 -1.00275,-0.5261 -1.25175,-1.34318 -0.31373,-1.02947 -1.763,-1.91805 -3.12834,-1.91805 -0.72535,0 -1.37243,0.15953 -1.60977,0.39688 -0.21828,0.21828 -0.56778,0.39687 -0.77667,0.39687 -0.20888,0 -0.69364,0.45289 -1.07723,1.00641 -0.6706,0.96767 -0.69744,1.14588 -0.69744,4.63021 v 3.6238 h 4.07159 4.0716 z m 6.80247,0.39688 c 0.008,-0.25466 0.16238,-1.85712 0.34205,-3.56102 0.36679,-3.47863 0.21726,-4.08698 -1.37698,-5.60221 -0.72332,-0.68748 -0.93642,-0.74985 -2.16018,-0.63226 -1.88623,0.18124 -2.13815,0.52143 -2.23094,3.01256 -0.0427,1.14761 -0.16883,3.24743 -0.28019,4.66626 l -0.20247,2.57969 h 2.94666 c 2.6241,0 2.94835,-0.0507 2.96205,-0.46302 z m -25.28309,-13.80035 c -1.28126,-0.37874 -2.19218,-1.49353 -2.37028,-2.90077 -0.0809,-0.63907 -0.004,-0.82805 0.33903,-0.82983 0.24406,-0.001 1.06561,-0.077 1.82567,-0.1683 1.29634,-0.15572 1.39733,-0.12547 1.63075,0.48846 0.28817,0.75796 -0.0965,2.95317 -0.58291,3.32653 -0.1722,0.13218 -0.55122,0.16994 -0.84226,0.0839 z m 15.08193,-0.74829 c -0.86831,-0.21952 -1.76345,-1.36157 -1.57724,-2.01231 0.0898,-0.31395 0.22145,-0.77918 0.29247,-1.03384 0.0909,-0.32597 0.39795,-0.46303 1.03734,-0.46303 0.83554,0 1.05307,0.2085 0.92928,0.89068 -0.0229,0.12607 0.14076,0.50753 0.36364,0.84768 0.30151,0.46017 0.33967,0.79089 0.1491,1.29214 -0.14087,0.37052 -0.34837,0.65986 -0.46112,0.64298 -0.11274,-0.0169 -0.4428,-0.0908 -0.73347,-0.1643 z m 26.94372,57.195775 c -0.0912,-0.23765 0.559962,-1.84264 1.529652,-3.77031 1.60574,-3.1921 1.69242,-3.30883 1.76946,-2.38293 0.0526,0.63167 -0.13089,1.37505 -0.52234,2.11667 -0.33183,0.62869 -0.75483,1.50026 -0.93998,1.93682 -0.32749,0.77219 -0.32409,0.77899 0.12546,0.25022 0.25416,-0.29894 0.66421,-0.83472 0.91124,-1.19062 l 0.44915,-0.6471 0.0139,0.92616 c 0.0259,1.73048 -2.82627,4.09077 -3.336512,2.76109 z m -3.63181,-11.11475 c -0.19497,-0.50807 -0.30209,-0.29566 3.63637,-7.21006 2.950812,-5.18049 3.220122,-5.56662 3.294072,-4.72298 0.0661,0.75363 -0.35269,1.66812 -2.33006,5.08847 -1.325822,2.29335 -2.589642,4.53776 -2.808492,4.98757 l -0.39791,0.81784 0.87588,-0.92961 c 0.48174,-0.51129 1.738682,-1.8805 2.793212,-3.04271 1.84426,-2.03258 1.91735,-2.08264 1.91822,-1.31363 7.5e-4,0.65695 -0.50755,1.32904 -2.85149,3.77031 -2.827072,2.94447 -3.759032,3.52101 -4.129802,2.5548 z"
       id="path1" /></g></svg>
