<svg width="206" height="82" viewBox="0 0 206 82" fill="none" xmlns="http://www.w3.org/2000/svg">
<path d="M128.938 1C104.84 13.9759 81.6716 28.4037 58.5286 43.0176C40.2747 54.5442 -14.8871 87.3399 5.47386 80.1635C36.4847 69.2334 66.8405 49.5595 95.7507 34.4161C109.558 27.1838 135.359 13.5517 151.089 5.56713C154.093 4.04225 162.636 -0.803342 160.452 1.76119C153.406 10.0316 142.474 17.3084 134.419 24.2923C120.181 36.637 106.138 49.2059 91.8686 61.5144C88.053 64.8058 75.6961 73.2052 80.3747 71.3337C101.306 62.9612 122.133 54.2997 143.249 46.3668C201.616 24.4388 101.784 73.7694 149.034 62.3517C154.583 61.0108 159.945 58.9742 165.475 57.5562C174.946 55.128 174.844 55.4271 167.302 60.5249C164.757 62.2454 136.657 76.2547 155.276 76.4337C166.884 76.5453 178.453 73.7587 189.529 70.5725C194.518 69.1374 208.449 62.51 204.296 65.6248C197.413 70.7868 193.383 76.5935 204.296 73.6173" stroke="white" stroke-width="0.898532" stroke-linecap="round"/>
</svg>
